<?xml version="1.0" encoding="UTF-8" standalone="no"?>
<!-- Created with Inkscape (http://www.inkscape.org/) -->

<svg
   width="210mm"
   height="297mm"
   viewBox="0 0 210 297"
   version="1.1"
   id="svg8"
   inkscape:version="1.1.1 (3bf5ae0d25, 2021-09-20)"
   sodipodi:docname="logo-final.svg"
   xmlns:inkscape="http://www.inkscape.org/namespaces/inkscape"
   xmlns:sodipodi="http://sodipodi.sourceforge.net/DTD/sodipodi-0.dtd"
   xmlns="http://www.w3.org/2000/svg"
   xmlns:svg="http://www.w3.org/2000/svg"
   xmlns:rdf="http://www.w3.org/1999/02/22-rdf-syntax-ns#"
   xmlns:cc="http://creativecommons.org/ns#"
   xmlns:dc="http://purl.org/dc/elements/1.1/">
  <defs
     id="defs2" />
  <sodipodi:namedview
     id="base"
     pagecolor="#ffffff"
     bordercolor="#666666"
     borderopacity="1.0"
     inkscape:pageopacity="0.0"
     inkscape:pageshadow="2"
     inkscape:zoom="2.103411"
     inkscape:cx="424.07309"
     inkscape:cy="537.46034"
     inkscape:document-units="mm"
     inkscape:current-layer="layer1"
     showgrid="false"
     inkscape:window-width="1920"
     inkscape:window-height="1013"
     inkscape:window-x="-9"
     inkscape:window-y="29"
     inkscape:window-maximized="1"
     inkscape:pagecheckerboard="0"
     inkscape:lockguides="true"
     showguides="true"
     inkscape:guide-bbox="true" />
  <metadata
     id="metadata5">
    <rdf:RDF>
      <cc:Work
         rdf:about="">
        <dc:format>image/svg+xml</dc:format>
        <dc:type
           rdf:resource="http://purl.org/dc/dcmitype/StillImage" />
      </cc:Work>
    </rdf:RDF>
  </metadata>
  <g
     inkscape:label="Layer 1"
     inkscape:groupmode="layer"
     id="layer1">
    <g
       id="g35">
      <path
         inkscape:connector-curvature="0"
         id="path7817"
         style="fill:#2e3092;fill-opacity:1;fill-rule:evenodd;stroke:none;stroke-width:0.297295"
         d="M 47.239963,128.5 H 162.76004 c 1.23203,0 2.23996,1.24128 2.23996,2.75853 v 34.48292 c 0,1.51727 -1.00793,2.75855 -2.23996,2.75855 H 47.239963 c -1.232028,0 -2.239961,-1.24128 -2.239961,-2.75855 v -34.48292 c 0,-1.51725 1.007933,-2.75853 2.239961,-2.75853" />
      <g
         id="g7938"
         transform="translate(23.107909,-37.485902)">
        <g
           id="g7825"
           transform="matrix(0.721953,0,0,0.721953,6.0869802,82.253848)">
          <path
             id="path7819"
             style="fill:#ffffff;fill-opacity:1;fill-rule:nonzero;stroke:none;stroke-width:0.352777"
             d="m 105.38922,124.13645 v 5.58312 h 4.29845 v -1.26348 h -2.71611 v -1.09916 h 2.44533 v -1.13844 h -2.44533 v -0.88883 h 2.63756 v -1.19321 z" />
          <path
             inkscape:connector-curvature="0"
             id="path7821"
             style="fill:#ffffff;fill-opacity:1;fill-rule:nonzero;stroke:none;stroke-width:0.338068"
             d="m 73.323107,124.04288 h 2.775257 c 0.604496,0 1.056997,0.14813 1.35866,0.4458 0.300341,0.29754 0.451284,0.72121 0.451284,1.27101 0,0.56403 -0.164742,1.00592 -0.492864,1.32303 -0.327931,0.31835 -0.82942,0.47694 -1.503086,0.47694 h -0.915082 v 2.06637 h -1.674169 z m 1.674169,2.38607 h 0.411025 c 0.32427,0 0.551761,-0.0585 0.682387,-0.17413 0.130798,-0.11566 0.196183,-0.26379 0.196183,-0.44446 0,-0.17545 -0.05654,-0.3236 -0.170961,-0.44577 -0.113089,-0.12221 -0.326809,-0.18324 -0.641007,-0.18324 h -0.477627 z m 6.460366,2.27693 h -1.89024 l -0.271563,0.92015 h -1.703014 l 2.032353,-5.58315 h 1.82634 l 2.02354,5.58315 h -1.747166 z m -0.35301,-1.20859 -0.589556,-2.0066 -0.591952,2.0066 z m 2.889564,-3.45441 h 2.775125 c 0.604497,0 1.056997,0.14813 1.358689,0.4458 0.300303,0.29754 0.451255,0.72121 0.451255,1.27101 0,0.56403 -0.164742,1.00592 -0.492768,1.32303 -0.328027,0.31835 -0.829477,0.47694 -1.503182,0.47694 h -0.914977 v 2.06637 h -1.674142 z m 1.674142,2.38607 h 0.41092 c 0.32427,0 0.55179,-0.0585 0.682493,-0.17413 0.130731,-0.11566 0.196078,-0.26379 0.196078,-0.44446 0,-0.17545 -0.05654,-0.3236 -0.170865,-0.44577 -0.113185,-0.12221 -0.326772,-0.18324 -0.641104,-0.18324 h -0.477522 z m 3.779423,-2.38607 h 4.464445 v 1.19307 h -2.790273 v 0.88896 h 2.586627 v 1.13844 h -2.586627 v 1.09946 h 2.873166 v 1.26322 h -4.547338 z m 2.134252,-1.47377 h 1.28949 l -1.191456,1.13847 h -0.716531 z m 3.379719,1.47377 h 1.674134 v 5.58315 h -1.674134 z m 2.580317,3.73643 1.583669,-0.10274 c 0.0339,0.26517 0.104246,0.46795 0.209856,0.60564 0.172216,0.22481 0.417338,0.3379 0.736546,0.3379 0.23755,0 0.42109,-0.0571 0.54928,-0.17279 0.12949,-0.11565 0.19358,-0.24952 0.19358,-0.40162 0,-0.14422 -0.0604,-0.27417 -0.18225,-0.38858 -0.1219,-0.11433 -0.40595,-0.22088 -0.852238,-0.32362 -0.731514,-0.16894 -1.251801,-0.3951 -1.563428,-0.67705 -0.314332,-0.28077 -0.471395,-0.63946 -0.471395,-1.07607 0,-0.28595 0.0804,-0.55629 0.241307,-0.81099 0.160889,-0.25609 0.402305,-0.45616 0.725249,-0.60173 0.322923,-0.14557 0.765375,-0.21833 1.327235,-0.21833 0.68995,0 1.21538,0.13256 1.57735,0.39896 0.36204,0.26517 0.57698,0.68749 0.64608,1.26718 l -1.56856,0.0961 c -0.0416,-0.25338 -0.12945,-0.43797 -0.26275,-0.55227 -0.13445,-0.11569 -0.31921,-0.17289 -0.554188,-0.17289 -0.193676,0 -0.340766,0.0428 -0.438702,0.12735 -0.0981,0.0844 -0.147096,0.1884 -0.147096,0.31059 0,0.0884 0.0403,0.16771 0.119406,0.23911 0.0767,0.0741 0.262736,0.14172 0.556762,0.20535 0.729068,0.16244 1.250678,0.32755 1.564808,0.49392 0.31548,0.16636 0.54557,0.37163 0.68884,0.61859 0.14324,0.2456 0.21494,0.52113 0.21494,0.82653 0,0.35745 -0.0955,0.68747 -0.28665,0.99031 -0.19222,0.30159 -0.45872,0.53157 -0.80314,0.6875 -0.34307,0.15598 -0.77546,0.2339 -1.29832,0.2339 -0.917522,0 -1.553453,-0.18323 -1.906699,-0.54845 -0.353112,-0.36511 -0.552937,-0.82911 -0.599492,-1.39181" />
          <path
             inkscape:connector-curvature="0"
             id="path7823"
             style="fill:#ffffff;fill-opacity:1;fill-rule:nonzero;stroke:none;stroke-width:0.352778"
             d="m 112.64056,124.04288 h 4.22011 v 1.19309 h -2.63752 v 0.8889 h 2.44511 v 1.13841 h -2.44511 v 1.0995 h 2.7159 v 1.26319 h -4.29849 z m 5.13369,0 h 2.08041 l 0.79251,3.39718 0.79478,-3.39718 h 2.0708 v 5.58309 h -1.29028 v -4.25619 l -0.99551,4.25619 h -1.1691 l -0.99328,-4.25619 v 4.25619 h -1.29033 z m 6.74953,0 h 2.95469 c 0.49199,0 0.86971,0.13388 1.13348,0.40029 0.2638,0.26639 0.3956,0.59652 0.3956,0.99029 0,0.33013 -0.0939,0.61341 -0.28268,0.8486 -0.12471,0.15861 -0.30889,0.28201 -0.55012,0.3743 0.3671,0.0962 0.6356,0.2612 0.80913,0.4965 0.1723,0.2352 0.25887,0.53022 0.25887,0.88501 0,0.28981 -0.0617,0.5497 -0.18408,0.78102 -0.12361,0.23139 -0.29221,0.41328 -0.5049,0.5485 -0.1331,0.0832 -0.3327,0.14418 -0.6,0.18189 -0.35521,0.0507 -0.59041,0.0767 -0.7069,0.0767 h -2.72309 z m 1.58969,2.1911 h 0.68788 c 0.24592,0 0.41822,-0.0467 0.51442,-0.13899 0.0963,-0.0936 0.14489,-0.22741 0.14489,-0.40291 0,-0.16242 -0.0486,-0.28981 -0.14489,-0.38079 -0.0962,-0.0922 -0.2649,-0.13772 -0.5037,-0.13772 h -0.6986 z m 0,2.19121 h 0.8043 c 0.27199,0 0.46341,-0.0533 0.57499,-0.15861 0.11169,-0.1052 0.1676,-0.2456 0.1676,-0.42372 0,-0.165 -0.0547,-0.29757 -0.1652,-0.39758 -0.11039,-0.10012 -0.3042,-0.15082 -0.58099,-0.15082 h -0.8007 z m 6.9657,0.28067 h -1.78692 l -0.25658,0.92011 h -1.6099 l 1.92109,-5.58309 h 1.72632 l 1.91279,5.58309 h -1.65142 z m -0.3339,-1.20858 -0.55721,-2.0066 -0.55958,2.0066 z m 2.7384,-3.4544 h 1.57551 v 4.21068 h 2.46648 v 1.37241 h -4.04199 z m 7.89489,4.66298 h -1.78689 l -0.25661,0.92011 h -1.6099 l 1.92123,-5.58309 h 1.72628 l 1.91269,5.58309 h -1.65139 z m -0.3339,-1.20858 -0.55718,-2.0066 -0.55951,2.0066 z m 5.17652,0.10908 v -1.16177 h 2.4378 v 2.3743 c -0.46679,0.3483 -0.87912,0.58617 -1.2367,0.71219 -0.35881,0.12608 -0.78422,0.18849 -1.27599,0.18849 -0.6059,0 -1.10011,-0.11311 -1.48153,-0.3392 -0.38139,-0.2249 -0.6773,-0.56148 -0.88748,-1.00849 -0.2103,-0.4458 -0.31489,-0.95909 -0.31489,-1.5374 0,-0.6096 0.11528,-1.13852 0.34459,-1.58951 0.2292,-0.44958 0.5655,-0.79139 1.00859,-1.02528 0.34569,-0.18073 0.8115,-0.2704 1.39612,-0.2704 0.56307,0 0.98478,0.0559 1.26397,0.16767 0.28042,0.1118 0.51213,0.28462 0.69631,0.51982 0.18412,0.2353 0.32311,0.5329 0.41582,0.89288 l -1.51842,0.29891 c -0.063,-0.21188 -0.1687,-0.3743 -0.31839,-0.48609 -0.14972,-0.113 -0.33979,-0.16891 -0.57259,-0.16891 -0.34463,0 -0.62022,0.13119 -0.82571,0.39369 -0.2056,0.26261 -0.3077,0.6784 -0.3077,1.2464 0,0.60301 0.1033,1.03442 0.31119,1.29311 0.20669,0.25859 0.49661,0.38852 0.8673,0.38852 0.17579,0 0.34329,-0.0272 0.50381,-0.0831 0.1591,-0.0559 0.34209,-0.15081 0.54881,-0.28328 v -0.52253 z m 3.37171,-3.56348 h 4.22007 v 1.19309 h -2.63758 v 0.8889 h 2.44511 v 1.13841 h -2.44511 v 1.0995 h 2.71601 v 1.26319 h -4.2985 z m 5.1622,0 h 1.47207 l 1.91404,3.08271 v -3.08271 h 1.48988 v 5.58309 h -1.48988 l -1.90331,-3.06581 v 3.06581 h -1.4828 z m 5.65288,3.73641 1.49702,-0.10273 c 0.0321,0.26511 0.0986,0.46792 0.1984,0.60561 0.1628,0.22479 0.39451,0.33789 0.6962,0.33789 0.22458,0 0.39808,-0.0572 0.51919,-0.17279 0.12241,-0.11571 0.18302,-0.24959 0.18302,-0.4016 0,-0.14429 -0.057,-0.27421 -0.1723,-0.38858 -0.11522,-0.11441 -0.38371,-0.22091 -0.80553,-0.32361 -0.69148,-0.16891 -1.18329,-0.39511 -1.478,-0.67712 -0.29701,-0.28067 -0.44549,-0.63937 -0.44549,-1.07608 0,-0.28592 0.076,-0.55622 0.22811,-0.81089 0.15208,-0.25601 0.38019,-0.45621 0.68548,-0.6017 0.30533,-0.14563 0.72362,-0.2184 1.25462,-0.2184 0.65229,0 1.14889,0.13257 1.49109,0.39899 0.34219,0.26511 0.54532,0.68749 0.61069,1.2671 l -1.4828,0.0962 c -0.0392,-0.2534 -0.12227,-0.43801 -0.24828,-0.55231 -0.12711,-0.11571 -0.3017,-0.1729 -0.52391,-0.1729 -0.18299,0 -0.32198,0.0429 -0.41469,0.12739 -0.0927,0.0845 -0.13889,0.18842 -0.13889,0.31062 0,0.0884 0.0379,0.16757 0.11278,0.23908 0.0725,0.0741 0.24829,0.14171 0.52631,0.20542 0.68908,0.16238 1.18209,0.32748 1.4792,0.49378 0.2982,0.16641 0.51558,0.37169 0.65098,0.6186 0.1355,0.2456 0.20331,0.52119 0.20331,0.82659 0,0.3573 -0.0904,0.68743 -0.27101,0.99032 -0.18168,0.30148 -0.4336,0.5315 -0.75907,0.68739 -0.32441,0.156 -0.733,0.234 -1.22731,0.234 -0.86731,0 -1.46851,-0.18331 -1.80242,-0.5485 -0.3338,-0.36509 -0.52267,-0.8291 -0.5667,-1.39178" />
        </g>
        <g
           id="g7831"
           transform="matrix(0.721953,0,0,0.962604,6.0867027,52.309427)">
          <path
             id="path7827"
             style="color:#000000;fill:#ffffff;stroke-width:1.602;-inkscape-stroke:none"
             d="m 50.22484,127.37827 -0.701249,5.2e-4 -0.0041,0.0331 c -0.671994,0.0177 -1.430356,0.0446 -2.851507,0.13281 h -0.0021 c -2.499482,0.16449 -4.434909,0.28896 -5.804813,0.37104 -1.369904,0.0821 -2.222786,0.12143 -2.378668,0.12143 -0.44986,0 -1.004961,-0.0145 -1.666046,-0.0393 h -0.0021 -0.0021 c -0.467132,-0.0152 -0.823084,-0.0196 -1.064532,-0.0196 -0.585775,0 -1.06135,0.0446 -1.505853,0.24805 -0.444502,0.20343 -0.859157,0.7663 -0.83199,1.29708 0.02318,0.44964 0.313375,0.77141 0.576191,0.95911 0.262819,0.18771 0.553083,0.31052 0.900721,0.42944 l 0.0021,0.002 c 0.238257,0.0811 0.364098,0.16067 0.425296,0.20722 -0.01609,-0.031 -0.118329,0.52499 -0.491958,1.33791 -0.392742,0.85449 -1.005636,2.02585 -1.829864,3.49591 -1.717794,3.06293 -2.905347,5.36039 -3.572391,6.95719 -0.666451,1.5957 -1.013441,2.93194 -0.953431,4.0995 0.02977,0.57932 0.256709,1.14714 0.668176,1.55442 l 0.0021,0.002 h 0.0021 c 0.409839,0.40123 0.989044,0.63304 1.570447,0.63304 0.614262,0 1.457161,-0.17555 2.843752,-0.50385 v -0.002 h 0.0016 c 0.250843,-0.0605 0.948999,-0.16239 1.956988,-0.26562 1.006896,-0.0988 1.932009,-0.17119 2.754352,-0.20516 h 0.0015 c 0.630915,-0.0271 1.130737,-0.0926 1.5782,-0.28525 0.223729,-0.0963 0.44427,-0.23209 0.623216,-0.45682 0.178948,-0.22472 0.282302,-0.54713 0.267684,-0.83199 -0.02404,-0.46643 -0.33637,-0.8309 -0.640786,-1.0356 -0.304417,-0.20471 -0.647248,-0.33065 -1.058334,-0.44131 -0.145465,-0.0446 -0.201782,-0.0813 -0.248047,-0.10904 0.01046,-0.13917 0.08017,-0.5874 0.335897,-1.29708 v -0.002 c 0.277016,-0.77441 0.592206,-1.46836 0.950846,-2.09548 v -0.002 c 0.720686,-1.26453 1.076505,-1.9152 1.339969,-2.43758 l 0.11524,-0.006 c 2.554972,-0.12945 4.106846,-0.19378 4.499983,-0.19378 0.865335,0 1.425138,0.16276 1.474845,0.19378 l 0.01137,0.006 0.0098,0.006 c 0.370816,0.21653 0.540721,0.3222 0.751893,0.41393 0.0013,5.9e-4 0.0028,-5.8e-4 0.0041,0 0.241464,0.10729 0.466897,0.12919 0.69143,0.12919 0.601335,0 1.18527,-0.30748 1.564246,-0.76378 l 0.0021,-0.002 0.0021,-0.002 c 0.373661,-0.45737 0.57385,-1.05495 0.543118,-1.65417 -0.03379,-0.65615 -0.551277,-1.27939 -1.160134,-1.50791 h -0.0041 l -0.0036,-0.002 c -0.605396,-0.22025 -1.345621,-0.27337 -2.382801,-0.27337 -0.751972,0 -2.526387,0.12958 -4.330485,0.25993 0.681519,-1.36516 1.39174,-2.77857 1.60352,-3.2892 0.211725,-0.51018 0.314248,-1.11647 0.425813,-1.71463 0.68108,-0.0443 1.364816,-0.0842 2.064475,-0.0842 1.21993,0 2.016061,0.20639 2.285132,0.38293 h 0.0041 l 0.0021,0.002 c 0.268152,0.17348 0.451215,0.4695 0.488344,1.19321 0.01172,0.22848 0.0025,0.4305 -0.01964,0.6072 -0.113462,0.63846 -0.183957,0.9984 -0.164333,1.38079 0.02459,0.47883 0.324157,0.98844 0.738457,1.23662 0.414303,0.24818 0.870472,0.31264 1.377178,0.31264 0.557278,0 1.11081,-0.13218 1.503783,-0.53898 l 0.0057,-0.006 0.0062,-0.006 c 0.386932,-0.41817 0.529979,-0.89817 0.709001,-1.58388 l 0.0062,-0.0258 c -0.01901,0.1008 -0.01,0.0347 0.01137,-0.0191 0.02535,-0.0639 0.06771,-0.1639 0.122989,-0.293 0.110556,-0.25818 0.277236,-0.63567 0.499711,-1.12861 v -0.004 l 0.0021,-0.004 c 0.35325,-0.8005 0.619543,-1.42563 0.800984,-1.88671 0.09072,-0.23054 0.159308,-0.41709 0.210841,-0.57774 0.05153,-0.16065 0.115268,-0.20592 0.09767,-0.55087 -0.02611,-0.50733 -0.370485,-0.98334 -0.773597,-1.23042 -0.403114,-0.24708 -0.863983,-0.36479 -1.415936,-0.44338 l -0.0036,-0.002 h -0.0021 c -0.911466,-0.12259 -2.096492,-0.1819 -3.566708,-0.1819 z m 17.146241,0.002 -0.0021,5.1e-4 c -0.332112,0.0193 -0.72214,0.0847 -1.232484,0.18914 -0.480095,0.0973 -1.196621,0.18163 -2.117183,0.25011 -1.663134,0.0935 -2.937489,0.13671 -3.802351,0.12713 h -0.0021 c -0.5809,-0.006 -1.046847,0.0302 -1.484661,0.20877 -0.218911,0.0893 -0.442897,0.22659 -0.617019,0.4532 -0.174117,0.2266 -0.26184,0.53961 -0.248047,0.80874 0.02134,0.41521 0.307827,0.81576 0.615468,1.01182 0.307639,0.19607 0.632804,0.28081 1.003557,0.33797 0.569074,0.0984 0.856279,0.19183 0.94361,0.21445 -0.008,0.23011 -0.31628,1.2895 -1.169953,2.80862 -1.925103,3.38785 -3.174116,5.73086 -3.790985,7.10758 -1.195683,2.61503 -1.81384,4.5226 -1.738394,5.99239 0.03134,0.60994 0.170955,1.16841 0.538985,1.61128 0.36803,0.44285 0.958128,0.66972 1.525487,0.66972 0.518621,0 1.112459,-0.11198 1.863453,-0.30489 l 0.02325,-0.006 0.02119,-0.008 c 0.460576,-0.14745 1.622491,-0.33917 3.326413,-0.50178 l 0.0057,-0.002 h 0.0041 c 0.768467,-0.0828 1.271778,-0.14795 1.732193,-0.36328 5.11e-4,-2.3e-4 -5.08e-4,-0.002 0,-0.002 0.480677,-0.22367 0.839589,-0.8443 0.812872,-1.36529 -0.01138,-0.22251 -0.05386,-0.43086 -0.105421,-0.64647 -0.0247,-0.12954 -0.03548,-0.24463 -0.04134,-0.35915 -0.06545,-1.27364 0.642718,-3.52469 2.275313,-6.51382 v -0.002 c 0.861341,-1.57343 1.53303,-2.80825 2.011762,-3.70675 0.478282,-0.89764 0.748448,-1.41871 0.879018,-1.72289 0.701741,-1.57289 1.09751,-2.89054 1.132747,-4.02921 0.02115,-0.58263 -0.118102,-1.16654 -0.509529,-1.59577 -0.39084,-0.42858 -0.954813,-0.62057 -1.53324,-0.65991 -0.108714,-0.009 -0.212936,-0.008 -0.320394,-0.002 z m 111.805059,0 -0.002,5.1e-4 c -0.33212,0.0193 -0.72214,0.0847 -1.23248,0.18914 -0.48001,0.0974 -1.19572,0.18157 -2.11718,0.25011 -1.6631,0.0935 -2.94011,0.13671 -3.80494,0.12713 -0.58092,-0.006 -1.04633,0.0302 -1.48414,0.20877 -0.21892,0.0893 -0.44342,0.22658 -0.61754,0.4532 -0.17412,0.22661 -0.26185,0.53961 -0.24805,0.80874 0.0213,0.41527 0.30782,0.81576 0.61547,1.01182 0.30764,0.19606 0.63126,0.28081 1.00201,0.33797 0.5694,0.0982 0.85418,0.18979 0.94309,0.2129 -0.008,0.2292 -0.31371,1.29016 -1.16788,2.81017 -1.92675,3.39079 -3.1783,5.73702 -3.79461,7.11326 -1.19371,2.61166 -1.81016,4.51814 -1.73477,5.98671 0.0313,0.60994 0.17095,1.16841 0.53898,1.61128 0.36803,0.44285 0.95813,0.66972 1.52549,0.66972 0.51861,0 1.11248,-0.11198 1.86345,-0.30489 l 0.0217,-0.006 0.0233,-0.008 c 0.46058,-0.14745 1.62199,-0.33917 3.3259,-0.50178 l 0.004,-0.002 h 0.006 c 0.76842,-0.0828 1.26968,-0.14794 1.73013,-0.36328 5e-4,-2.3e-4 -5.1e-4,-0.002 0,-0.002 0.48064,-0.22366 0.83964,-0.8442 0.81287,-1.36529 -0.0115,-0.22309 -0.0519,-0.4331 -0.10387,-0.65061 -0.0243,-0.12895 -0.0376,-0.24282 -0.0429,-0.35295 v -0.002 c -0.0654,-1.27367 0.64475,-3.5247 2.27738,-6.51382 v -0.002 c 0.86133,-1.57343 1.53147,-2.80825 2.01021,-3.70675 0.4757,-0.89278 0.74554,-1.4081 0.87695,-1.71307 0.70488,-1.57786 1.10102,-2.89768 1.13636,-4.03903 0.0211,-0.58263 -0.11811,-1.16655 -0.50953,-1.59577 -0.39084,-0.42857 -0.95689,-0.62057 -1.5353,-0.65991 -0.10798,-0.008 -0.20955,-0.008 -0.31626,-0.002 z m -77.02785,4.41833 c -0.38204,0 -0.80961,0.0526 -1.31414,0.14263 h -0.002 c -1.190373,0.21504 -3.412841,0.37412 -6.595982,0.44752 h 0.02532 c -0.624805,-0.006 -1.130646,0.0394 -1.597319,0.25166 -0.466669,0.21225 -0.888362,0.79093 -0.861446,1.3379 0.02196,0.45024 0.347261,0.94507 0.761712,1.13689 4.92e-4,2.2e-4 -4.92e-4,0.002 0,0.002 0.430961,0.20108 0.858388,0.2577 1.654162,0.39636 h 0.0021 0.0021 c 0.623009,0.10394 1.170223,0.45275 1.726509,1.18184 0.461741,0.61505 1.014548,1.88047 1.562696,3.33003 -2.930036,1.60315 -5.114086,3.05062 -6.388759,4.40593 -1.264081,1.33069 -1.984917,2.63196 -1.91978,3.961 0.02395,0.48951 0.288637,0.97189 0.667661,1.28519 0.3708,0.31276 0.85762,0.48835 1.344104,0.48835 0.364215,0 0.673738,-0.0859 1.116727,-0.21291 h 0.0021 c 0.102828,-0.0299 0.635492,-0.15053 1.431951,-0.30851 h 0.0021 c 0.784834,-0.15733 1.333704,-0.25172 1.560111,-0.27905 h 0.0021 0.0021 c 0.919649,-0.11621 1.435214,-0.16749 1.928048,-0.38912 l 0.0057,-0.004 0.0078,-0.002 c 0.469865,-0.22304 0.806431,-0.84257 0.781346,-1.35341 -0.0153,-0.31172 -0.161486,-0.65466 -0.390673,-0.88108 -0.229188,-0.22641 -0.501111,-0.34584 -0.775147,-0.41806 l 0.02325,0.006 c -0.368726,-0.10892 -0.441119,-0.13885 -0.583944,-0.18965 0.04043,-0.11631 0.211863,-0.6134 0.966867,-1.38286 h 0.0021 c 0.607705,-0.6216 1.173321,-0.92843 1.736328,-1.24386 0.81307,1.89114 1.583978,3.58565 2.255668,4.60541 0.39968,0.60687 0.79121,1.08581 1.21853,1.44332 0.42732,0.35752 0.92029,0.60927 1.47071,0.60927 0.43271,0 0.8474,-0.11056 1.40819,-0.28319 l 0.004,-0.002 c 0.48879,-0.14798 1.21265,-0.30793 2.13682,-0.46302 0.94013,-0.15625 1.71786,-0.25503 2.33371,-0.28112 h 0.006 0.004 c 0.82676,-0.0456 1.46264,-0.0836 1.91411,-0.11524 0.22573,-0.0158 0.40383,-0.0298 0.54259,-0.0429 0.12758,-0.012 0.18982,-0.0133 0.33435,-0.047 0.39235,-0.0816 0.74687,-0.20321 1.05473,-0.46456 0.0705,-0.0598 0.13367,-0.13238 0.19222,-0.20981 -0.55622,1.60982 -0.81493,3.07782 -0.74621,4.41678 0.0286,0.55788 0.21028,1.10856 0.61754,1.49448 0.40726,0.38594 0.96435,0.53692 1.52135,0.53692 0.37608,0 0.76348,-0.0764 1.24799,-0.19895 l 0.006,-0.002 h 0.006 c 0.38812,-0.1044 1.05109,-0.23565 1.93942,-0.38292 0.88905,-0.14242 1.58017,-0.22844 2.07222,-0.26562 h 0.008 l 0.008,-0.002 c 0.68249,-0.064 1.16891,-0.12677 1.63298,-0.38861 0.48201,-0.27072 0.75436,-0.88746 0.72864,-1.40043 v -0.002 c -0.007,-0.14357 -0.0239,-0.29186 -0.0429,-0.50953 l -0.002,-0.0238 -0.002,-0.0233 c -0.034,-0.23534 -0.0476,-0.38808 -0.0506,-0.43924 v -0.002 c -2e-5,-2.2e-4 10e-6,-0.002 0,-0.002 -0.0391,-0.76953 0.23419,-1.61025 0.49196,-2.44739 0.74595,0.36741 1.56955,0.61546 2.51974,0.61546 1.64177,0 3.49139,-0.44035 5.58571,-1.28312 3.42928,-1.38646 6.13116,-3.18695 8.05687,-5.42034 h 0.002 c 1.46232,-1.69885 2.24609,-3.41062 2.15852,-5.11494 -0.0665,-1.29587 -0.72699,-2.43448 -1.81641,-3.20135 -1.26824,-0.89442 -2.83113,-1.32809 -4.59765,-1.32809 -1.16028,0 -2.28865,0.18347 -3.35742,0.55862 -0.72004,0.25119 -1.79632,0.84384 -2.81275,1.37718 -5.7e-4,-0.0167 0.007,-0.046 0.006,-0.0625 v -0.002 c -0.028,-0.54385 -0.31915,-1.06052 -0.73432,-1.39475 -0.41679,-0.33567 -0.95345,-0.50591 -1.49242,-0.50591 H 126.063 v 0.0879 c -0.10174,0.0154 -0.18533,0.0111 -0.29301,0.0315 -1.6937,0.30013 -3.32896,0.44883 -4.89634,0.44907 l -1.24644,-0.0295 h -0.01 c -0.65118,0 -1.16483,0.0428 -1.62885,0.21911 -0.232,0.0882 -0.46547,0.21699 -0.65629,0.44338 -0.19081,0.22641 -0.30015,0.56064 -0.28525,0.85112 0.0238,0.46154 0.38638,0.90544 0.76171,1.07848 0.3821,0.18147 0.75675,0.24126 1.35547,0.34365 0.31792,0.0585 0.5084,0.15152 0.56276,0.19327 0.0173,0.0133 0.0149,0.007 0.0176,0.006 -8.3e-4,0.001 -0.002,6e-4 -0.002,0.004 0.006,0.11383 -0.0246,0.30506 -0.14262,0.5643 -0.14648,0.30082 -0.70144,1.36437 -1.66244,3.1347 -1.77739,3.14036 -2.91773,5.28556 -3.44526,6.53138 -0.10241,0.23642 -0.19635,0.46845 -0.28732,0.69918 0.003,-0.0431 0.0129,-0.0868 0.0108,-0.12919 -0.0231,-0.4719 -0.35905,-0.89446 -0.709,-1.10381 -0.34822,-0.20831 -0.73105,-0.30726 -1.18546,-0.37879 l -0.006,-0.002 c -0.70823,-0.1179 -1.20337,-0.31246 -1.47846,-0.50178 -0.27872,-0.19686 -0.68275,-0.63723 -1.125,-1.32809 -7e-4,-0.001 -0.001,-9.2e-4 -0.002,-0.002 -0.71334,-1.16631 -1.48495,-2.68452 -2.26963,-4.32222 1.73215,-0.82065 3.2062,-1.5196 3.66231,-1.75597 l 0.006,-0.004 c 0.5451,-0.27821 1.12832,-0.6279 1.74614,-1.04851 l 0.008,-0.006 c 0.96969,-0.64328 1.71157,-1.21728 2.24379,-1.76579 0.53403,-0.55038 0.93631,-1.09509 0.90072,-1.82004 v -0.002 c -0.0235,-0.45967 -0.33808,-0.86777 -0.67024,-1.08986 -0.33585,-0.224 -0.74443,-0.33383 -1.15239,-0.33383 -0.39216,0 -0.82971,0.0601 -1.35909,0.16175 h -0.002 c -1.26223,0.24707 -2.57167,0.39562 -3.93155,0.43977 h 0.01 c -0.64579,0.0122 -1.10707,0.04 -1.56063,0.23616 l -0.0114,0.006 -0.014,0.006 c -0.43934,0.20897 -0.80834,0.78439 -0.78341,1.29139 0.0164,0.333 0.17582,0.68425 0.41238,0.91571 0.20489,0.20048 0.4508,0.30092 0.69918,0.38498 -0.0849,0.0702 -0.11334,0.11108 -0.22634,0.19327 h -0.002 l -0.002,0.002 c -0.39617,0.29173 -0.95934,0.56404 -1.49448,0.83974 -0.0728,-0.16539 -0.10649,-0.21289 -0.19482,-0.4315 l -0.002,-0.006 c -0.57002,-1.44354 -1.0283,-2.42118 -1.52755,-3.06028 -0.50049,-0.64068 -1.25192,-1.04697 -2.04484,-1.04697 z m -17.115237,1.08417 c -2.068613,0 -4.144815,0.41112 -6.228562,1.2206 -3.195349,1.24202 -5.832533,2.94611 -7.868769,5.11907 -1.713198,1.82537 -2.630932,3.65741 -2.537314,5.4808 0.0667,1.29931 0.765288,2.44488 1.912027,3.23443 1.329409,0.91807 3.115315,1.32395 5.312854,1.32395 1.310082,0 2.623847,-0.18661 3.931545,-0.55449 h 0.0021 0.0015 c 1.304857,-0.37239 2.666527,-0.93934 4.088123,-1.70532 0.954743,-0.51329 1.678524,-0.95784 2.205034,-1.37511 0.263255,-0.20864 0.480436,-0.40736 0.656289,-0.64027 0.175858,-0.23291 0.338486,-0.52609 0.318328,-0.91829 -0.02438,-0.47709 -0.35514,-0.85542 -0.69143,-1.06247 -0.314397,-0.19779 -0.686414,-0.31213 -1.064536,-0.31213 -0.7234,0 -1.297789,0.32546 -2.205032,0.82993 h -0.0021 c -1.132168,0.63591 -2.03971,1.07339 -2.689241,1.30638 h -0.0021 l -0.0021,0.002 c -0.652505,0.23863 -1.224942,0.34365 -1.730129,0.34365 -0.381696,0 -0.560742,-0.0821 -0.623216,-0.13281 -0.06247,-0.0507 -0.107614,-0.0975 -0.120925,-0.35708 -0.03934,-0.76574 0.321157,-1.74692 0.956532,-2.84375 0.823971,0.69538 1.852745,1.16788 3.162597,1.16788 1.985605,0 3.912687,-0.5032 5.74952,-1.48053 h 0.0021 l 0.0021,-0.002 c 1.217779,-0.6569 2.161294,-1.36885 2.814815,-2.18747 0.653521,-0.81863 1.001093,-1.77092 0.950846,-2.7497 -0.05747,-1.12082 -0.767088,-2.09007 -1.836063,-2.74247 l -0.0015,-0.002 h -0.0021 c -1.127961,-0.67654 -2.617938,-0.96274 -4.461224,-0.96274 z m 74.118987,0 c -2.06843,7e-5 -4.14451,0.41118 -6.22804,1.2206 -3.19537,1.24202 -5.83306,2.94611 -7.86929,5.11907 -1.7132,1.82537 -2.63092,3.65741 -2.53731,5.4808 0.0667,1.29979 0.76663,2.4464 1.91409,3.23598 1.3292,0.91708 3.11436,1.3224 5.31079,1.3224 1.31008,0 2.62593,-0.18661 3.93361,-0.55449 h 0.002 c 1.3049,-0.37239 2.66599,-0.93935 4.0876,-1.70532 0.95472,-0.51327 1.68048,-0.95788 2.2071,-1.37511 0.2633,-0.20862 0.47831,-0.40738 0.65423,-0.64027 0.17591,-0.23289 0.34058,-0.52747 0.32039,-0.91984 -0.0247,-0.47817 -0.35762,-0.85414 -0.6935,-1.06092 -0.31387,-0.19745 -0.6864,-0.31213 -1.06453,-0.31213 -0.7234,0 -1.29573,0.32546 -2.20297,0.82993 h -0.002 -0.002 c -1.13208,0.63586 -2.03959,1.07335 -2.68924,1.30638 h -0.002 l -0.002,0.002 c -0.65266,0.23868 -1.22493,0.34365 -1.73013,0.34365 -0.38171,0 -0.56075,-0.0821 -0.62321,-0.13281 -0.0625,-0.0507 -0.10762,-0.0975 -0.12093,-0.35708 -0.0393,-0.76564 0.32182,-1.74705 0.95705,-2.84375 0.82384,0.69563 1.85195,1.16788 3.16208,1.16788 1.98557,0 3.9132,-0.5032 5.75004,-1.48053 h 0.002 l 0.002,-0.002 c 1.21776,-0.6569 2.16283,-1.36885 2.81636,-2.18747 0.65352,-0.81862 0.99956,-1.77091 0.9493,-2.7497 -0.0575,-1.12045 -0.76486,-2.09 -1.834,-2.74247 l -0.004,-0.002 h -0.002 c -1.12796,-0.67656 -2.61767,-0.96268 -4.46071,-0.96274 z m -74.583559,3.18741 c 0.0047,0 -8.46e-4,-7e-5 0.0036,0 -0.01641,0.12188 -0.05861,0.38116 -0.276987,0.83819 -0.253412,0.53025 -0.563517,1.03121 -0.933791,1.49603 l -0.0021,0.002 c -0.350335,0.44355 -0.740357,0.81833 -1.183389,1.13843 l -0.0021,0.002 -0.0021,0.002 c -0.103063,0.0756 -0.07621,0.0412 -0.163814,0.0915 -0.0782,-0.41938 -0.287457,-0.83786 -0.630968,-1.07228 -0.08172,-0.0575 -0.19099,-0.0396 -0.279569,-0.0837 0.452755,-0.48194 0.840893,-1.00072 1.408181,-1.418 h 0.0021 v -0.002 c 0.971164,-0.71898 1.72752,-0.99425 2.060858,-0.99425 z m 74.118989,0 c 0.007,0 -4e-4,-1.3e-4 0.006,0 -0.0164,0.12191 -0.0592,0.3812 -0.2775,0.83819 -0.25321,0.52986 -0.56486,1.03093 -0.93535,1.49603 l -0.002,0.002 c -0.35054,0.4438 -0.7411,0.81846 -1.18391,1.13843 l -0.002,0.002 -0.002,0.002 c -0.10209,0.0749 -0.0753,0.0414 -0.16226,0.0915 -0.0782,-0.41942 -0.2895,-0.83783 -0.63304,-1.07228 -0.0812,-0.0571 -0.18901,-0.0398 -0.27698,-0.0837 0.45276,-0.48172 0.84108,-1.00084 1.40818,-1.418 l 0.002,-0.002 c 0.9712,-0.71899 1.72546,-0.99425 2.05879,-0.99425 z m -26.3617,1.37666 5.2e-4,5.1e-4 h 0.002 c 0.0975,0 0.15479,0.0104 0.18966,0.0186 2.4e-4,0.006 -9.7e-4,-9e-5 -5.2e-4,0.009 0.0213,0.41572 -0.18085,1.27538 -0.71055,2.42569 -0.77863,1.66439 -1.93026,3.19966 -3.48661,4.61729 -0.45763,0.41608 -0.96317,0.78898 -1.51154,1.11725 -0.32117,0.18494 -0.36066,0.18357 -0.51366,0.24029 -0.13972,-0.36261 -0.31592,-0.7325 -0.60771,-0.91054 l -0.008,-0.006 -0.0103,-0.004 c -0.24491,-0.14088 -0.5365,-0.15986 -0.81597,-0.21498 0.29977,-0.60616 0.54012,-1.16355 1.0449,-1.93166 l 0.002,-0.004 0.004,-0.004 c 0.76568,-1.19804 1.44681,-2.10587 2.01383,-2.70526 l 0.002,-0.002 c 4.6e-4,-4.9e-4 0.001,-5.5e-4 0.002,-0.002 0.57375,-0.60049 1.29181,-1.19503 2.15594,-1.76785 0.97386,-0.62307 1.74519,-0.87695 2.24792,-0.87695 z" />
          <path
             id="path7829"
             style="fill:#ffff00;fill-opacity:1;fill-rule:nonzero;stroke:none;stroke-width:0.401899"
             d="m 50.224192,128.61013 c -0.569703,0 -1.738524,0.0547 -3.505729,0.16433 -5.000696,0.32911 -7.746029,0.49351 -8.236706,0.49351 -0.466903,0 -1.030013,-0.0149 -1.696022,-0.0398 -0.45988,-0.015 -0.808074,-0.0201 -1.037661,-0.0201 -1.052513,0 -1.562915,0.23462 -1.538925,0.70331 0.01259,0.24424 0.324683,0.46342 0.936892,0.67283 0.644385,0.21928 0.975817,0.50831 0.993738,0.85732 0.03069,0.59819 -0.788152,2.37282 -2.448428,5.33403 -1.711113,3.05101 -2.891734,5.33913 -3.533119,6.87452 -0.641315,1.53551 -0.941644,2.78196 -0.891934,3.74913 0.02152,0.41872 0.165621,0.76262 0.43253,1.02681 0.274992,0.26921 0.606663,0.40359 1.010275,0.40359 0.403685,0 1.289846,-0.15919 2.658237,-0.48318 0.351718,-0.0848 1.043027,-0.17951 2.066541,-0.28421 1.015891,-0.0997 1.953786,-0.17439 2.798794,-0.20929 1.160886,-0.0498 1.726282,-0.29411 1.703771,-0.73278 -0.01542,-0.29913 -0.384701,-0.54869 -1.106908,-0.7431 -0.562504,-0.1645 -0.852061,-0.40879 -0.86868,-0.73278 -0.01739,-0.33901 0.119819,-0.91221 0.410827,-1.71979 0.290689,-0.81263 0.624361,-1.55064 1.00924,-2.22363 0.849524,-1.49059 1.371459,-2.42757 1.549259,-2.81637 l 0.560173,-0.03 c 2.557497,-0.12959 4.073695,-0.1943 4.540809,-0.1943 0.925795,0 1.564309,0.10482 1.899626,0.31419 0.367207,0.21442 0.594926,0.33872 0.675926,0.37362 0.08908,0.0399 0.209129,0.0599 0.367421,0.0599 0.372004,0 0.688417,-0.15976 0.949296,-0.47387 0.260596,-0.31898 0.383731,-0.68758 0.362252,-1.10639 -0.01951,-0.37889 -0.230648,-0.64337 -0.64234,-0.79789 -0.411197,-0.1496 -1.111718,-0.22427 -2.108914,-0.22427 -0.926007,0 -2.811359,0.11462 -5.648751,0.33899 1.192601,-2.35797 1.923354,-3.84864 2.183847,-4.47672 0.260702,-0.6282 0.437007,-1.35575 0.536916,-2.18333 0.882616,-0.0747 1.782765,-0.10956 2.692861,-0.10956 1.290002,0 2.200775,0.16927 2.724898,0.51315 0.523981,0.33899 0.808683,0.9473 0.853694,1.82469 0.01407,0.27419 0.0033,0.52347 -0.0248,0.74776 -0.116594,0.658 -0.166831,1.07176 -0.158131,1.24127 0.02688,0.52349 0.467735,0.78755 1.314648,0.78755 0.435187,0 0.739151,-0.0995 0.927076,-0.29404 0.179883,-0.19441 0.356619,-0.60807 0.521933,-1.24127 0.01227,-0.0698 0.238035,-0.60324 0.685745,-1.59525 0.701781,-1.59029 1.051732,-2.47762 1.042831,-2.65203 -0.02463,-0.47858 -0.522652,-0.78281 -1.503267,-0.92243 -0.852702,-0.11469 -2.011445,-0.17415 -3.459737,-0.17415 z m 17.192747,0 c -0.255172,0.0147 -0.626486,0.0732 -1.119828,0.17415 -0.540491,0.10971 -1.279562,0.19479 -2.217952,0.26459 -1.680808,0.0947 -2.968876,0.13919 -3.871597,0.12919 -1.053079,-0.01 -1.564521,0.19958 -1.542542,0.62838 0.01563,0.30409 0.326805,0.50372 0.941027,0.59842 0.702593,0.11962 1.151086,0.22896 1.346171,0.32866 0.187291,0.1047 0.291844,0.28905 0.305925,0.56327 0.0315,0.61319 -0.402429,1.71525 -1.301729,3.31556 -1.923521,3.38491 -3.172143,5.73255 -3.761528,7.04867 -1.173904,2.5674 -1.726438,4.44178 -1.666047,5.61826 0.052,1.01201 0.473652,1.52083 1.265039,1.52083 0.387808,0 0.944959,-0.095 1.663464,-0.27956 0.607306,-0.19442 1.769666,-0.37336 3.49436,-0.53796 0.739915,-0.0797 1.225542,-0.17485 1.480529,-0.29455 0.247298,-0.11458 0.363903,-0.31377 0.349332,-0.5979 -0.0079,-0.15448 -0.04096,-0.33408 -0.09095,-0.53847 -0.03232,-0.16951 -0.04841,-0.3241 -0.05581,-0.4687 -0.08121,-1.58027 0.710139,-3.89312 2.374014,-6.93911 1.722014,-3.14562 2.674908,-4.93533 2.858741,-5.36402 0.681495,-1.52552 1.036695,-2.7722 1.066085,-3.73931 0.03312,-0.89739 -0.402677,-1.3706 -1.300181,-1.4304 -0.05957,-0.005 -0.131466,-0.005 -0.216524,0 z m 111.804021,0 c -0.25518,0.0147 -0.62648,0.0732 -1.11983,0.17415 -0.54049,0.10971 -1.28004,0.19479 -2.21847,0.26459 -1.68077,0.0947 -2.9684,0.13919 -3.87108,0.12919 -1.05312,-0.01 -1.56454,0.19958 -1.54254,0.62838 0.0156,0.30409 0.32681,0.50372 0.94103,0.59842 0.70259,0.11962 1.15108,0.22896 1.34617,0.32866 0.18728,0.1047 0.29183,0.28905 0.30593,0.56327 0.0315,0.61319 -0.40243,1.71525 -1.30173,3.31556 -1.92349,3.38491 -3.17214,5.73255 -3.76153,7.04867 -1.1739,2.5674 -1.72645,4.44178 -1.66605,5.61826 0.052,1.01201 0.47365,1.52083 1.26504,1.52083 0.3878,0 0.945,-0.095 1.66346,-0.27956 0.60731,-0.19442 1.76967,-0.37336 3.49436,-0.53796 0.73988,-0.0797 1.22555,-0.17485 1.48054,-0.29455 0.24729,-0.11458 0.36393,-0.31377 0.34933,-0.5979 -0.008,-0.15448 -0.0409,-0.33408 -0.0909,-0.53847 -0.0323,-0.16951 -0.0488,-0.3241 -0.0558,-0.4687 -0.0812,-1.58027 0.71009,-3.89312 2.37401,-6.93911 1.72198,-3.14562 2.67494,-4.93533 2.85874,-5.36402 0.6815,-1.52552 1.03668,-2.7722 1.06609,-3.73931 0.0331,-0.89739 -0.40272,-1.3706 -1.30018,-1.4304 -0.0596,-0.005 -0.13147,-0.005 -0.21653,0 z m -77.07229,4.41886 c -0.30142,0 -0.69543,0.0455 -1.17358,0.13074 -1.289036,0.23286 -3.520911,0.38612 -6.721027,0.45992 -1.128655,-0.0114 -1.676213,0.23876 -1.651064,0.74982 0.01025,0.21019 0.112781,0.36387 0.297656,0.44907 0.193919,0.0908 0.672838,0.19862 1.454693,0.33486 0.8509,0.14195 1.590164,0.64153 2.234488,1.48777 0.635603,0.8462 1.289373,2.22637 1.951302,4.13463 -3.290028,1.7493 -5.57417,3.29404 -6.834725,4.63434 -1.187532,1.24954 -1.752761,2.37387 -1.703771,3.37344 0.01334,0.27261 0.137356,0.51125 0.37982,0.71003 0.233548,0.19882 0.513961,0.30076 0.832509,0.30076 0.180774,0 0.479266,-0.0621 0.895551,-0.18139 0.195165,-0.0568 0.697865,-0.16498 1.499651,-0.32401 0.793271,-0.15903 1.339707,-0.25528 1.622123,-0.28938 0.898845,-0.11358 1.470575,-0.22169 1.698088,-0.32401 0.227272,-0.10788 0.33823,-0.30059 0.324011,-0.59015 -0.01366,-0.27836 -0.203419,-0.46616 -0.569992,-0.56276 -0.576604,-0.17033 -0.92715,-0.2895 -1.051097,-0.3576 -0.124185,-0.0738 -0.191169,-0.21574 -0.201538,-0.42581 -0.02472,-0.50547 0.405405,-1.21578 1.291394,-2.11874 0.877343,-0.89739 1.759276,-1.52168 2.621029,-1.86241 0.997709,2.43068 1.868869,4.21372 2.613269,5.34386 0.74435,1.13021 1.4181,1.6924 2.02107,1.6924 0.25818,0 0.64175,-0.085 1.17615,-0.2496 0.54333,-0.16474 1.29313,-0.32931 2.24121,-0.48834 0.95684,-0.15903 1.76117,-0.26151 2.43138,-0.2899 1.64919,-0.0909 2.53296,-0.15297 2.66908,-0.18708 0.6309,-0.13065 0.9372,-0.39206 0.91829,-0.77824 -0.0178,-0.36356 -0.42623,-0.60777 -1.22473,-0.73277 -0.79005,-0.13053 -1.39482,-0.34653 -1.81384,-0.63614 -0.41926,-0.2954 -0.86666,-0.81194 -1.34255,-1.55598 -0.85178,-1.39133 -1.75392,-3.10087 -2.68821,-5.117 2.41577,-1.14151 3.88872,-1.84562 4.3925,-2.10684 0.51254,-0.26125 1.0728,-0.59674 1.67276,-1.00563 1.89362,-1.25509 2.8286,-2.21489 2.7957,-2.88509 -0.009,-0.17604 -0.11102,-0.32925 -0.31575,-0.46561 -0.1958,-0.1306 -0.43199,-0.19895 -0.70745,-0.19895 -0.30147,0 -0.70398,0.0512 -1.20716,0.14779 -1.30537,0.25552 -2.65823,0.40874 -4.0597,0.45424 -0.60232,0.0114 -1.02164,0.0684 -1.2578,0.17053 -0.22715,0.10804 -0.33912,0.28386 -0.32711,0.52813 0.0148,0.30098 0.23163,0.51118 0.64233,0.63046 0.56825,0.17041 0.85135,0.32362 0.85835,0.47129 0.0125,0.25551 -0.30533,0.61328 -0.94568,1.079 -0.64003,0.4713 -1.41978,0.90886 -2.33836,1.31775 -0.1319,-0.23286 -0.32471,-0.65324 -0.56999,-1.26091 -0.56041,-1.41982 -1.02944,-2.37394 -1.41542,-2.86804 -0.38598,-0.49409 -0.85402,-0.73845 -1.41386,-0.73845 z m 24.71425,1.05471 c -0.26119,0 -0.57572,0.0351 -0.94413,0.1049 -1.7411,0.30911 -3.4268,0.46354 -5.0493,0.46354 l -1.25212,-0.03 c -1.2028,0 -1.79292,0.22424 -1.76992,0.67283 0.009,0.17448 0.11073,0.30897 0.29714,0.39377 0.18669,0.0897 0.57093,0.17935 1.15393,0.27905 0.8067,0.14461 1.21875,0.46388 1.24386,0.9524 0.0143,0.27919 -0.0564,0.59349 -0.21291,0.93741 -0.16457,0.33899 -0.71947,1.40063 -1.68827,3.18534 -1.77779,3.14059 -2.91769,5.2945 -3.41168,6.4611 -0.92703,2.13861 -1.34667,3.98804 -1.26607,5.55832 0.0435,0.84752 0.49265,1.27124 1.33945,1.27124 0.24518,0 0.59852,-0.0601 1.05162,-0.17467 0.445,-0.1197 1.11907,-0.24943 2.02158,-0.39894 0.90269,-0.1446 1.6103,-0.23399 2.13837,-0.27389 0.638,-0.0598 1.07657,-0.15476 1.31516,-0.28938 0.23072,-0.12958 0.33785,-0.3539 0.32195,-0.66301 -0.005,-0.0997 -0.0213,-0.25889 -0.0408,-0.48318 -0.0367,-0.25429 -0.0529,-0.42396 -0.0579,-0.51366 -0.0615,-1.19648 0.1833,-2.44284 0.74259,-3.72897 0.74821,0.70291 1.77105,1.05161 3.06906,1.05161 1.49582,0 3.25551,-0.40879 5.28702,-1.22628 3.34158,-1.351 5.92794,-3.08549 7.75043,-5.19917 1.38172,-1.6052 2.03979,-3.12093 1.96628,-4.55165 -0.055,-1.07188 -0.55065,-1.93434 -1.47846,-2.58744 -1.11679,-0.78761 -2.49798,-1.18133 -4.13618,-1.18133 -1.07629,0 -2.11262,0.16926 -3.09232,0.51315 -0.9718,0.33902 -2.31486,0.99712 -4.00647,1.96422 0.10079,-0.65801 0.14891,-1.11159 0.13591,-1.36581 -0.0164,-0.31908 -0.16532,-0.59307 -0.4377,-0.81235 -0.27242,-0.2194 -0.60231,-0.32918 -0.99012,-0.32918 z m -41.829483,0.03 c -1.962894,0 -3.937159,0.38861 -5.939174,1.16634 -3.103702,1.2064 -5.631349,2.84676 -7.574732,4.92063 -1.628209,1.73482 -2.399107,3.36473 -2.320788,4.89014 0.05451,1.0619 0.574218,1.93439 1.566829,2.61741 1.140497,0.78761 2.759252,1.18132 4.856551,1.18132 1.234617,0 2.475958,-0.17448 3.71657,-0.52348 1.240084,-0.35391 2.549859,-0.89688 3.928441,-1.63969 1.863796,-1.002 2.78361,-1.72989 2.760038,-2.1885 -0.0079,-0.15463 -0.109792,-0.29908 -0.314193,-0.42374 -0.196321,-0.12462 -0.413784,-0.18966 -0.643371,-0.18966 -0.340217,0 -0.944867,0.24413 -1.814359,0.72761 -1.153901,0.64812 -2.087981,1.10192 -2.810679,1.36116 -0.722384,0.26418 -1.38879,0.39377 -2.006082,0.39377 -0.989293,0 -1.501402,-0.4185 -1.54409,-1.25109 -0.06198,-1.2064 0.44509,-2.58249 1.529104,-4.12791 0.609071,1.07181 1.744911,1.61024 3.391009,1.61024 1.851906,0 3.640423,-0.46367 5.373833,-1.38597 2.31041,-1.24628 3.425637,-2.64212 3.346047,-4.1925 -0.04269,-0.83252 -0.529957,-1.53516 -1.453142,-2.09858 -0.939128,-0.56328 -2.29091,-0.8475 -4.047812,-0.8475 z m 74.119503,0 c -1.96289,0 -3.9372,0.38861 -5.93917,1.16634 -3.10372,1.2064 -5.63136,2.84676 -7.57474,4.92063 -1.62821,1.73482 -2.39909,3.36473 -2.32078,4.89014 0.0545,1.0619 0.57422,1.93439 1.56682,2.61741 1.1405,0.78761 2.75926,1.18132 4.85656,1.18132 1.23462,0 2.47598,-0.17448 3.71657,-0.52348 1.24011,-0.35391 2.54982,-0.89688 3.92844,-1.63969 1.86379,-1.002 2.78415,-1.72989 2.76055,-2.1885 -0.008,-0.15463 -0.11031,-0.29908 -0.31471,-0.42374 -0.19632,-0.12462 -0.41326,-0.18966 -0.64285,-0.18966 -0.34021,0 -0.94487,0.24413 -1.81436,0.72761 -1.1539,0.64812 -2.0885,1.10192 -2.8112,1.36116 -0.72241,0.26418 -1.38827,0.39377 -2.00556,0.39377 -0.98933,0 -1.5014,-0.4185 -1.54409,-1.25109 -0.062,-1.2064 0.44512,-2.58249 1.5291,-4.12791 0.6091,1.07181 1.74436,1.61024 3.39049,1.61024 1.85187,0 3.64042,-0.46367 5.37384,-1.38597 2.31037,-1.24628 3.42564,-2.64212 3.34604,-4.1925 -0.0427,-0.83252 -0.5294,-1.53516 -1.45262,-2.09858 -0.9391,-0.56328 -2.29143,-0.8475 -4.04833,-0.8475 z m -74.584593,1.58543 c 0.5461,0 0.826013,0.20908 0.847495,0.62787 0.0164,0.31901 -0.118698,0.77271 -0.397394,1.35599 -0.278728,0.58322 -0.621969,1.13663 -1.030944,1.65003 -0.393805,0.49858 -0.838927,0.92751 -1.342554,1.2914 -0.4959,0.36389 -0.889852,0.54828 -1.166852,0.54828 -0.213714,0 -0.328499,-0.075 -0.335899,-0.21962 -0.0036,-0.0698 0.02996,-0.18438 0.101288,-0.339 0.04128,-0.11959 0.05933,-0.23388 0.05323,-0.35347 -0.01259,-0.24432 -0.133958,-0.44874 -0.371554,-0.60823 -0.229976,-0.1645 -0.510937,-0.24443 -0.84336,-0.24443 -0.166192,0 -0.386839,0.0202 -0.645953,0.06 0.693488,-0.98199 1.558679,-1.8546 2.595705,-2.61741 1.036989,-0.76771 1.887791,-1.15136 2.536796,-1.15136 z m 74.120013,0 c 0.5461,0 0.826,0.20908 0.8475,0.62787 0.0164,0.31901 -0.11866,0.77271 -0.39739,1.35599 -0.2787,0.58322 -0.62249,1.13663 -1.03146,1.65003 -0.39381,0.49858 -0.83845,0.92751 -1.34204,1.2914 -0.4959,0.36389 -0.89037,0.54828 -1.16737,0.54828 -0.21372,0 -0.32838,-0.075 -0.33538,-0.21962 -0.004,-0.0698 0.03,-0.18438 0.10129,-0.339 0.0413,-0.11959 0.0587,-0.23388 0.0527,-0.35347 -0.0126,-0.24432 -0.13397,-0.44874 -0.37156,-0.60823 -0.23001,-0.1645 -0.51097,-0.24443 -0.84336,-0.24443 -0.16619,0 -0.38687,0.0202 -0.64595,0.06 0.69349,-0.98199 1.55923,-1.8546 2.59622,-2.61741 1.03702,-0.76771 1.88779,-1.15136 2.53679,-1.15136 z m -26.36118,1.37563 c 0.63309,0 0.96271,0.26413 0.98961,0.78755 0.034,0.66297 -0.22635,1.5955 -0.78187,2.8019 -0.82719,1.76971 -2.04973,3.39506 -3.67522,4.87567 -0.49901,0.4537 -1.048,0.85739 -1.63918,1.21129 -0.59941,0.349 -1.02606,0.52349 -1.28726,0.52349 -0.22941,0 -0.35115,-0.075 -0.35915,-0.21963 -0.002,-0.0399 0.026,-0.10443 0.077,-0.18913 0.0352,-0.0798 0.0474,-0.15483 0.0444,-0.21963 -0.0113,-0.21929 -0.15519,-0.40342 -0.42478,-0.56792 -0.27732,-0.15953 -0.58221,-0.23978 -0.92243,-0.23978 -0.1108,0 -0.27648,0.0102 -0.48885,0.0351 -0.0628,0.01 -0.16535,0.0201 -0.30696,0.0351 0.32742,-0.86741 0.88358,-1.90452 1.67638,-3.11092 0.7838,-1.22639 1.48739,-2.1687 2.11047,-2.8267 0.62341,-0.65313 1.38994,-1.28611 2.30063,-1.8893 1.0498,-0.67299 1.94327,-1.00717 2.68717,-1.00717 z" />
        </g>
      </g>
    </g>
  </g>
</svg>
