<?xml version="1.0" encoding="UTF-8" standalone="no"?>
<!-- Created with Inkscape (http://www.inkscape.org/) -->

<svg
   width="120mm"
   height="120mm"
   viewBox="0 0 120 120"
   version="1.1"
   id="svg8"
   inkscape:version="1.1.1 (3bf5ae0d25, 2021-09-20)"
   sodipodi:docname="logo-square.svg"
   inkscape:export-filename="logo-square.png"
   inkscape:export-xdpi="299.93167"
   inkscape:export-ydpi="299.93167"
   xmlns:inkscape="http://www.inkscape.org/namespaces/inkscape"
   xmlns:sodipodi="http://sodipodi.sourceforge.net/DTD/sodipodi-0.dtd"
   xmlns="http://www.w3.org/2000/svg"
   xmlns:svg="http://www.w3.org/2000/svg"
   xmlns:rdf="http://www.w3.org/1999/02/22-rdf-syntax-ns#"
   xmlns:cc="http://creativecommons.org/ns#"
   xmlns:dc="http://purl.org/dc/elements/1.1/">
  <defs
     id="defs2" />
  <sodipodi:namedview
     id="base"
     pagecolor="#ffffff"
     bordercolor="#666666"
     borderopacity="1.0"
     inkscape:pageopacity="0.0"
     inkscape:pageshadow="2"
     inkscape:zoom="0.74366809"
     inkscape:cx="229.94129"
     inkscape:cy="246.07752"
     inkscape:document-units="mm"
     inkscape:current-layer="layer1"
     showgrid="false"
     inkscape:window-width="1616"
     inkscape:window-height="1144"
     inkscape:window-x="3779"
     inkscape:window-y="689"
     inkscape:window-maximized="0"
     inkscape:pagecheckerboard="0"
     inkscape:lockguides="true"
     showguides="true"
     inkscape:guide-bbox="true" />
  <metadata
     id="metadata5">
    <rdf:RDF>
      <cc:Work
         rdf:about="">
        <dc:format>image/svg+xml</dc:format>
        <dc:type
           rdf:resource="http://purl.org/dc/dcmitype/StillImage" />
      </cc:Work>
    </rdf:RDF>
  </metadata>
  <g
     inkscape:label="Layer 1"
     inkscape:groupmode="layer"
     id="layer1">
    <path
       id="path2992-5"
       style="fill:#000080;fill-opacity:1;fill-rule:evenodd;stroke:none;stroke-width:1.12363"
       d="M 8.4667969,0 C 3.8103131,0 0,4.6912931 0,10.425781 v 130.330079 172.0332 49.26367 81.06446 c 0,5.73456 3.8103131,10.42578 8.4667969,10.42578 H 445.07812 c 4.6565,0 8.46485,-4.69122 8.46485,-10.42578 V 362.05273 312.78906 121.59766 10.425781 C 453.54297,4.6912931 449.73462,0 445.07812,0 Z"
       transform="scale(0.26458333)" />
    <g
       id="g1029"
       transform="translate(-1.3577542e-4,39.999891)">
      <path
         id="path2994-3"
         style="fill:#ffffff;fill-opacity:1;fill-rule:nonzero;stroke:none;stroke-width:0.254688"
         d="m 60.280951,5.8886325 v 4.0307502 h 3.103278 V 9.0072095 H 61.423326 V 8.2136677 h 1.765413 V 7.3917675 H 61.423326 V 6.750074 H 63.32752 V 5.8886325 Z" />
      <path
         inkscape:connector-curvature="0"
         id="path2996-5"
         style="fill:#ffffff;fill-opacity:1;fill-rule:nonzero;stroke:none;stroke-width:0.244069"
         d="m 37.130724,5.8210793 h 2.003605 c 0.436418,0 0.763102,0.1069429 0.980889,0.3218467 0.216832,0.2148099 0.325806,0.5206797 0.325806,0.9176095 0,0.4072031 -0.118936,0.7262269 -0.355825,0.9551655 -0.236751,0.2298337 -0.598802,0.3443282 -1.085157,0.3443282 h -0.660647 v 1.491822 h -1.208671 z m 1.208671,1.7226304 h 0.296741 c 0.234108,0 0.398346,-0.042234 0.492651,-0.1257136 0.09443,-0.083501 0.141635,-0.190444 0.141635,-0.3208793 0,-0.1266666 -0.04082,-0.233624 -0.123425,-0.321825 -0.08165,-0.08823 -0.235941,-0.1322906 -0.462777,-0.1322906 h -0.344825 z m 4.664081,1.6438365 h -1.364664 l -0.196056,0.664305 H 40.21326 l 1.467263,-4.0307719 h 1.318532 l 1.460901,4.0307719 H 43.198584 Z M 42.748619,8.315001 42.322988,6.8663301 41.895626,8.315001 Z m 2.08613,-2.4939217 h 2.00351 c 0.436418,0 0.763102,0.1069429 0.980909,0.3218467 0.216805,0.2148099 0.325785,0.5206797 0.325785,0.9176095 0,0.4072031 -0.118936,0.7262269 -0.355755,0.9551655 -0.23682,0.2298337 -0.598844,0.3443282 -1.085227,0.3443282 h -0.66057 v 1.491822 h -1.208652 z m 1.208652,1.7226304 h 0.296665 c 0.234107,0 0.398366,-0.042234 0.492727,-0.1257136 0.09438,-0.083501 0.14156,-0.190444 0.14156,-0.3208793 0,-0.1266666 -0.04082,-0.233624 -0.123357,-0.321825 -0.08171,-0.08823 -0.235914,-0.1322906 -0.462847,-0.1322906 h -0.344748 z m 2.728565,-1.7226304 h 3.22312 V 6.6824198 H 49.98064 v 0.6417873 h 1.867423 V 8.1461073 H 49.98064 v 0.7937585 h 2.074291 v 0.9119854 h -3.282965 z m 1.54083,-1.0639926 h 0.930951 L 50.383572,5.5790085 H 49.86627 Z m 2.439998,1.0639926 h 1.208646 v 4.0307719 h -1.208646 z m 1.862868,2.6975269 1.143334,-0.074174 c 0.02447,0.1914403 0.07526,0.3378379 0.151507,0.4372437 0.124332,0.1623022 0.301298,0.2439479 0.531751,0.2439479 0.1715,0 0.304007,-0.041224 0.396555,-0.1247463 0.09349,-0.083494 0.139755,-0.1801417 0.139755,-0.2899507 0,-0.1041201 -0.04361,-0.1979379 -0.131576,-0.2805365 -0.08801,-0.08254 -0.293076,-0.1594645 -0.615275,-0.233638 C 55.703594,8.0747856 55.327971,7.9115087 55.102991,7.707954 54.876058,7.5052513 54.762666,7.246294 54.762666,6.9310821 c 0,-0.2064425 0.05804,-0.4016153 0.174212,-0.5854967 0.116155,-0.1848849 0.290446,-0.3293261 0.523596,-0.4344208 0.233135,-0.1050947 0.552565,-0.157624 0.958201,-0.157624 0.498112,0 0.877448,0.095702 1.138773,0.2880304 0.261376,0.1914403 0.416552,0.4963355 0.466439,0.9148444 l -1.132426,0.06938 C 56.861431,6.8428669 56.798001,6.7096016 56.701767,6.6270824 56.604697,6.5435594 56.471313,6.502264 56.30167,6.502264 c -0.139825,0 -0.246017,0.030899 -0.316722,0.091941 -0.07082,0.060933 -0.106197,0.1360159 -0.106197,0.2242314 0,0.063821 0.02909,0.1210787 0.08621,0.1726261 0.05537,0.053497 0.189683,0.1023152 0.401956,0.1482531 0.526353,0.117274 0.90293,0.2364757 1.129718,0.356587 0.227761,0.1201041 0.393875,0.2682994 0.49731,0.4465929 0.103412,0.1773117 0.155176,0.3762314 0.155176,0.5967158 0,0.2580621 -0.06895,0.4963211 -0.206948,0.7149573 -0.138773,0.2177338 -0.331174,0.3837686 -0.579829,0.4963427 -0.24768,0.1126102 -0.559846,0.1688648 -0.937326,0.1688648 -0.662408,0 -1.12152,-0.1322834 -1.376547,-0.3959551 C 54.793537,9.2598281 54.649272,8.9248419 54.615662,8.518599" />
      <path
         inkscape:connector-curvature="0"
         id="path2998-1"
         style="fill:#ffffff;fill-opacity:1;fill-rule:nonzero;stroke:none;stroke-width:0.254689"
         d="m 65.516077,5.8210793 h 3.046721 v 0.8613549 h -1.904165 v 0.6417441 h 1.765254 v 0.8218785 h -1.765254 v 0.7937873 h 1.960752 v 0.9119638 h -3.103308 z m 3.706283,0 h 1.501958 l 0.572155,2.4526043 0.573794,-2.4526043 h 1.49502 V 9.8518079 H 72.433766 V 6.7790388 L 71.715054,9.8518079 H 70.871019 L 70.153918,6.7790388 V 9.8518079 H 69.22236 Z m 4.872844,0 h 2.133147 c 0.355194,0 0.62789,0.096655 0.818319,0.2889906 0.190451,0.1923211 0.285605,0.4306594 0.285605,0.7149428 0,0.2383384 -0.06779,0.4428532 -0.204082,0.6126494 -0.09004,0.1145089 -0.223004,0.2035979 -0.397161,0.270227 0.265029,0.069452 0.458874,0.1885741 0.584154,0.3584496 0.124393,0.1698034 0.186892,0.382794 0.186892,0.6389357 0,0.2092292 -0.04454,0.3968575 -0.132897,0.5638597 -0.08924,0.1670527 -0.210962,0.2983687 -0.364514,0.3959912 -0.09609,0.060066 -0.240194,0.1040912 -0.433172,0.131316 -0.256445,0.036603 -0.426248,0.055374 -0.510348,0.055374 h -1.965943 z m 1.147681,1.5818713 h 0.496617 c 0.177543,0 0.301935,-0.033715 0.371387,-0.1003443 0.06952,-0.067575 0.104604,-0.1641793 0.104604,-0.2908821 0,-0.1172596 -0.03509,-0.2092292 -0.104604,-0.2749125 -0.06945,-0.066564 -0.191245,-0.099427 -0.363648,-0.099427 h -0.504356 z m 0,1.5819506 h 0.580667 c 0.196364,0 0.33456,-0.03848 0.415116,-0.114509 0.08063,-0.075949 0.120999,-0.1773116 0.120999,-0.3059059 0,-0.1191222 -0.03949,-0.2148315 -0.119267,-0.2870341 -0.0797,-0.072282 -0.219618,-0.1088849 -0.419447,-0.1088849 h -0.578068 z m 5.028908,0.2026305 H 78.981721 L 78.796482,9.8518079 H 77.63421 l 1.386937,-4.0307286 h 1.246322 l 1.380944,4.0307286 h -1.192248 z m -0.24106,-0.8725379 -0.40228,-1.4486709 -0.40399,1.4486709 z m 1.976996,-2.4939145 h 1.137444 v 3.0399131 h 1.780683 v 0.9908155 h -2.918127 z m 5.69974,3.3664524 h -1.290051 l -0.18526,0.6642762 h -1.162273 l 1.387038,-4.0307286 h 1.246293 l 1.380873,4.0307286 H 87.891863 Z M 87.466408,8.3149938 87.064151,6.8663229 86.660211,8.3149938 Z m 3.737205,0.078751 V 7.5550011 h 1.759977 v 1.714133 c -0.337001,0.2514562 -0.634684,0.4231872 -0.89284,0.5141677 -0.259044,0.091024 -0.56617,0.1360809 -0.921204,0.1360809 -0.437432,0 -0.794228,-0.08166 -1.069596,-0.2448864 C 89.804605,9.512129 89.590972,9.2691341 89.439232,8.9464139 89.287405,8.6245672 89.211896,8.253996 89.211896,7.8364833 c 0,-0.4401025 0.08323,-0.8219579 0.248778,-1.1475515 0.165471,-0.3245756 0.408264,-0.5713464 0.728154,-0.7402039 0.249572,-0.1304786 0.585865,-0.1952161 1.007933,-0.1952161 0.40651,0 0.710965,0.040357 0.912527,0.1210498 0.20245,0.080714 0.369734,0.2054823 0.502703,0.3752856 0.132926,0.1698756 0.23327,0.3847288 0.300203,0.6446174 l -1.096228,0.215799 C 91.770483,6.9572962 91.694172,6.8400366 91.586103,6.7593295 91.478012,6.6777488 91.340791,6.6373844 91.17272,6.6373844 c -0.248806,0 -0.447769,0.094713 -0.596124,0.2842257 -0.148433,0.189592 -0.222145,0.4897729 -0.222145,0.8998422 0,0.4353449 0.07458,0.7468026 0.224665,0.9335646 0.14922,0.1866898 0.358529,0.2804932 0.62615,0.2804932 0.126912,0 0.247839,-0.019637 0.363727,-0.059994 0.114863,-0.040357 0.246973,-0.1088777 0.396215,-0.2045148 V 8.3937589 Z m 2.434216,-2.5726651 h 3.046692 v 0.8613549 h -1.904209 v 0.6417441 h 1.765255 v 0.8218785 h -1.765255 v 0.7937873 h 1.960832 v 0.9119638 h -3.103315 z m 3.726865,0 h 1.062766 l 1.381847,2.2255718 V 5.8210793 h 1.075623 V 9.8518079 H 99.809307 L 98.435206,7.6384372 v 2.2133707 h -1.070512 z m 4.081116,2.6975125 1.08078,-0.074166 c 0.0232,0.191397 0.0712,0.3378163 0.14323,0.437222 0.11754,0.1622878 0.28482,0.2439407 0.50263,0.2439407 0.16213,0 0.28739,-0.041296 0.37483,-0.1247463 0.0884,-0.083537 0.13213,-0.1801922 0.13213,-0.2899363 0,-0.1041706 -0.0412,-0.1979667 -0.12439,-0.2805365 -0.0832,-0.082599 -0.27703,-0.1594866 -0.58156,-0.2336312 -0.49922,-0.1219451 -0.85428,-0.2852509 -1.06705,-0.4888488 -0.21442,-0.2026306 -0.32162,-0.4615951 -0.32162,-0.7768792 0,-0.2064208 0.0549,-0.4015647 0.16469,-0.5854245 0.10979,-0.1848272 0.27448,-0.3293622 0.49488,-0.4343991 0.22043,-0.105138 0.52242,-0.1576745 0.90578,-0.1576745 0.47092,0 0.82944,0.095709 1.07649,0.288052 0.24705,0.191397 0.3937,0.4963355 0.44089,0.9147866 l -1.07051,0.069452 c -0.0283,-0.1829429 -0.0883,-0.3162226 -0.17924,-0.3987418 -0.0918,-0.083537 -0.21782,-0.1248257 -0.37824,-0.1248257 -0.13211,0 -0.23246,0.030972 -0.29939,0.09197 -0.0669,0.061005 -0.10027,0.1360304 -0.10027,0.224253 0,0.063821 0.0274,0.1209777 0.0814,0.1726045 0.0523,0.053497 0.17925,0.102308 0.37997,0.1483036 0.49748,0.1172308 0.85341,0.2364252 1.06791,0.356486 0.21529,0.1201402 0.37223,0.2683427 0.46998,0.4466001 0.0978,0.1773117 0.14678,0.3762747 0.14678,0.5967591 0,0.2579538 -0.0653,0.4962922 -0.19566,0.7149645 -0.13116,0.2176544 -0.31303,0.383718 -0.54801,0.4962633 -0.23421,0.1126247 -0.52919,0.168937 -0.88606,0.168937 -0.62616,0 -1.06019,-0.1323412 -1.30126,-0.3959912 -0.24099,-0.2635778 -0.37734,-0.5985713 -0.40913,-1.0047998" />
      <path
         id="path3002-9"
         style="color:#000000;fill:#ffffff;stroke-width:1.33549;-inkscape-stroke:none"
         d="m 20.454584,8.93836 -0.506269,5e-4 -0.003,0.0319 c -0.485148,0.017 -1.03265,0.0429 -2.058654,0.12784 h -0.0015 c -1.804509,0.15834 -3.201796,0.27816 -4.190802,0.35717 -0.989007,0.079 -1.604747,0.11689 -1.717287,0.11689 -0.324777,0 -0.725534,-0.014 -1.202807,-0.0378 h -0.0015 -0.0015 c -0.337247,-0.0146 -0.594228,-0.0189 -0.768542,-0.0189 -0.422902,0 -0.766245,0.0429 -1.087155,0.23877 -0.32091,0.19583 -0.620271,0.73765 -0.600658,1.24858 0.01674,0.43282 0.226242,0.74256 0.415983,0.92324 0.189743,0.18069 0.3993,0.29891 0.650278,0.41338 l 0.0015,0.002 c 0.172011,0.0781 0.262862,0.15466 0.307044,0.19947 -0.01162,-0.0298 -0.08543,0.50536 -0.35517,1.28788 -0.283542,0.82253 -0.726022,1.95009 -1.321076,3.36517 -1.240167,2.94839 -2.097524,5.15993 -2.579099,6.69701 -0.481146,1.53603 -0.731656,2.8223 -0.688332,3.9462 0.02149,0.55765 0.185332,1.10424 0.482392,1.49629 l 0.0015,0.002 h 0.0015 c 0.295884,0.38623 0.714043,0.60937 1.133789,0.60937 0.443468,0 1.052002,-0.16899 2.053055,-0.48501 v -0.002 h 0.0012 c 0.181097,-0.0582 0.685133,-0.15632 1.412854,-0.25569 0.726931,-0.0951 1.394819,-0.16479 1.988512,-0.19749 h 0.0011 c 0.455491,-0.0261 0.816339,-0.0891 1.139386,-0.27458 0.161522,-0.0927 0.320743,-0.22341 0.449933,-0.43974 0.129192,-0.21631 0.203809,-0.52667 0.193255,-0.80088 -0.01736,-0.44898 -0.242843,-0.79982 -0.462617,-0.99687 -0.219775,-0.19705 -0.467283,-0.31828 -0.764067,-0.4248 -0.105019,-0.0429 -0.145677,-0.0783 -0.179079,-0.10497 0.0076,-0.13396 0.05788,-0.56543 0.242502,-1.24857 v -0.002 c 0.199993,-0.74545 0.427545,-1.41345 0.686466,-2.01711 v -0.002 c 0.520302,-1.21724 0.777186,-1.84357 0.967395,-2.34641 l 0.0832,-0.006 c 1.84457,-0.12461 2.96495,-0.18653 3.248776,-0.18653 0.624731,0 1.028883,0.15667 1.064769,0.18653 l 0.0082,0.006 0.0071,0.006 c 0.267711,0.20843 0.390375,0.31015 0.542831,0.39845 9.39e-4,5.7e-4 0.002,-5.6e-4 0.003,0 0.174326,0.10328 0.337078,0.12436 0.49918,0.12436 0.434136,0 0.855709,-0.29598 1.129312,-0.73522 l 0.0015,-0.002 0.0015,-0.002 c 0.269766,-0.44026 0.414293,-1.0155 0.392106,-1.59231 -0.02439,-0.63161 -0.397996,-1.23154 -0.837562,-1.45152 h -0.003 l -0.0026,-0.002 c -0.437068,-0.21202 -0.971475,-0.26315 -1.720271,-0.26315 -0.542888,0 -1.823932,0.12473 -3.126406,0.25021 0.492024,-1.31411 1.004771,-2.67466 1.157666,-3.1662 0.152855,-0.4911 0.226872,-1.07472 0.307417,-1.65051 0.491707,-0.0426 0.985333,-0.081 1.490454,-0.081 0.880732,0 1.455501,0.19867 1.649758,0.36861 h 0.003 l 0.0015,0.002 c 0.193593,0.16699 0.325756,0.45194 0.352561,1.14859 0.0085,0.21993 0.0018,0.4144 -0.01418,0.58449 -0.08191,0.61458 -0.132808,0.96106 -0.118641,1.32915 0.01775,0.46093 0.234026,0.95148 0.533131,1.19038 0.299108,0.2389 0.62844,0.30095 0.994258,0.30095 0.402329,0 0.801953,-0.12724 1.085661,-0.51883 l 0.0041,-0.006 0.0045,-0.006 c 0.279347,-0.40253 0.38262,-0.86458 0.511866,-1.52465 l 0.0045,-0.0248 c -0.01373,0.097 -0.0072,0.0334 0.0082,-0.0184 0.0183,-0.0615 0.04888,-0.15777 0.08879,-0.28204 0.07982,-0.24853 0.200151,-0.6119 0.360767,-1.08641 v -0.004 l 0.0015,-0.004 c 0.255029,-0.77056 0.44728,-1.37231 0.578272,-1.81615 0.0655,-0.22192 0.115013,-0.40149 0.152218,-0.55614 0.0372,-0.15464 0.08322,-0.19822 0.07051,-0.53027 -0.01885,-0.48835 -0.267473,-0.94656 -0.558501,-1.1844 -0.291029,-0.23784 -0.623755,-0.35115 -1.022239,-0.4268 l -0.0026,-0.002 h -0.0015 c -0.658036,-0.118 -1.513569,-0.1751 -2.574996,-0.1751 z m 12.37878,0.002 -0.0015,4.9e-4 c -0.239769,0.0186 -0.521351,0.0815 -0.889796,0.18207 -0.346606,0.0937 -0.863904,0.17484 -1.528506,0.24076 -1.200705,0.09 -2.120729,0.13159 -2.745119,0.12237 h -0.0015 c -0.419383,-0.006 -0.755774,0.0291 -1.071855,0.20097 -0.158044,0.086 -0.319751,0.21811 -0.445459,0.43625 -0.125704,0.21812 -0.189036,0.51943 -0.179078,0.77849 0.01541,0.39969 0.222236,0.78526 0.444338,0.97399 0.222101,0.18873 0.456855,0.27031 0.724521,0.32533 0.410845,0.0947 0.618194,0.18465 0.681243,0.20643 -0.0058,0.2215 -0.22834,1.24128 -0.844652,2.70359 -1.389833,3.26115 -2.291562,5.51655 -2.736913,6.84177 -0.863226,2.51724 -1.309507,4.35347 -1.255038,5.7683 0.02263,0.58713 0.123421,1.12472 0.389122,1.55102 0.2657,0.42629 0.691723,0.64468 1.101329,0.64468 0.37442,0 0.803144,-0.10779 1.345326,-0.29349 l 0.01679,-0.006 0.0153,-0.008 c 0.332514,-0.14194 1.171362,-0.32649 2.401513,-0.48302 l 0.0041,-0.002 h 0.003 c 0.554797,-0.0797 0.918163,-0.14241 1.250561,-0.34969 3.69e-4,-2.2e-4 -3.66e-4,-0.002 0,-0.002 0.347027,-0.2153 0.606144,-0.81272 0.586856,-1.31423 -0.0082,-0.21419 -0.03888,-0.41475 -0.07611,-0.62229 -0.01783,-0.1247 -0.02562,-0.23549 -0.02985,-0.34572 -0.04725,-1.22601 0.464012,-3.39288 1.642669,-6.27022 v -0.002 c 0.621848,-1.51459 1.106776,-2.70323 1.452398,-3.56813 0.345297,-0.86407 0.540344,-1.36566 0.63461,-1.65846 0.506624,-1.51407 0.79235,-2.78245 0.81779,-3.87853 0.01527,-0.56085 -0.08526,-1.12292 -0.367856,-1.5361 -0.282168,-0.41255 -0.68933,-0.59736 -1.106927,-0.63523 -0.07849,-0.009 -0.15373,-0.008 -0.23131,-0.002 z m 80.717986,0 -0.001,4.9e-4 c -0.23978,0.0186 -0.52135,0.0815 -0.88979,0.18207 -0.34655,0.0938 -0.86326,0.17478 -1.52851,0.24076 -1.20068,0.09 -2.12262,0.13159 -2.74699,0.12237 -0.41939,-0.006 -0.7554,0.0291 -1.07147,0.20097 -0.15805,0.086 -0.32013,0.2181 -0.44584,0.43625 -0.12571,0.21813 -0.18904,0.51943 -0.17908,0.77849 0.0154,0.39974 0.22223,0.78526 0.44434,0.97399 0.2221,0.18872 0.45574,0.27031 0.7234,0.32533 0.41108,0.0945 0.61668,0.18269 0.68087,0.20494 -0.006,0.22062 -0.22648,1.24191 -0.84315,2.70508 -1.39103,3.26398 -2.29459,5.52248 -2.73953,6.84724 -0.86181,2.51399 -1.30685,4.34918 -1.25243,5.76283 0.0226,0.58713 0.12342,1.12472 0.38912,1.55102 0.2657,0.42629 0.69173,0.64468 1.10133,0.64468 0.37442,0 0.80316,-0.10779 1.34533,-0.29349 l 0.0157,-0.006 0.0168,-0.008 c 0.33251,-0.14194 1.171,-0.32649 2.40114,-0.48302 l 0.003,-0.002 h 0.004 c 0.55476,-0.0797 0.91665,-0.1424 1.24907,-0.34969 3.6e-4,-2.2e-4 -3.7e-4,-0.002 0,-0.002 0.347,-0.21529 0.60618,-0.81263 0.58686,-1.31423 -0.008,-0.21475 -0.0375,-0.4169 -0.075,-0.62628 -0.0175,-0.12413 -0.0271,-0.23374 -0.031,-0.33975 v -0.002 c -0.0472,-1.22603 0.46548,-3.39289 1.64417,-6.27021 v -0.002 c 0.62184,-1.51459 1.10565,-2.70323 1.45127,-3.56813 0.34344,-0.8594 0.53825,-1.35544 0.63312,-1.64901 0.50889,-1.51885 0.79488,-2.78932 0.8204,-3.88799 0.0152,-0.56084 -0.0853,-1.12292 -0.36786,-1.53609 -0.28217,-0.41254 -0.69083,-0.59736 -1.10841,-0.63523 -0.078,-0.008 -0.15129,-0.008 -0.22833,-0.002 z m -55.61048,4.2531 c -0.27582,0 -0.5845,0.0506 -0.94875,0.1373 h -10e-4 c -0.8594,0.207 -2.46392,0.36013 -4.76199,0.43079 h 0.0183 c -0.45108,-0.006 -0.81627,0.0379 -1.15318,0.24224 -0.33692,0.20432 -0.64136,0.76136 -0.62193,1.28787 0.0159,0.4334 0.25071,0.90973 0.54992,1.09438 3.6e-4,2.1e-4 -3.5e-4,0.002 0,0.002 0.31114,0.19356 0.61972,0.24807 1.19423,0.38154 h 0.002 10e-4 c 0.44978,0.10005 0.84484,0.43582 1.24645,1.13764 0.33335,0.59205 0.73245,1.81015 1.12819,3.2055 -2.11534,1.54319 -3.69212,2.93653 -4.612369,4.24116 -0.91261,1.28093 -1.433021,2.53354 -1.385991,3.81287 0.0173,0.47121 0.208381,0.93555 0.482021,1.23713 0.2677,0.30107 0.61916,0.47009 0.970376,0.47009 0.26294,0 0.486403,-0.0827 0.806223,-0.20495 h 0.002 c 0.0742,-0.0288 0.4588,-0.1449 1.0338,-0.29697 h 0.001 c 0.56662,-0.15145 0.96287,-0.24231 1.12633,-0.26861 h 0.001 0.002 c 0.66393,-0.11187 1.03615,-0.16123 1.39195,-0.37457 l 0.004,-0.004 0.006,-0.002 c 0.33922,-0.2147 0.58221,-0.81106 0.56409,-1.3028 -0.0111,-0.30006 -0.11658,-0.63017 -0.28204,-0.84813 -0.16547,-0.21794 -0.36178,-0.3329 -0.55962,-0.40242 l 0.0168,0.006 C 53.89547,27.07067 53.84321,27.04186 53.7401,26.99296 53.7693,26.881 53.89305,26.4025 54.43813,25.66182 h 0.002 c 0.43873,-0.59836 0.84709,-0.89371 1.25355,-1.19735 0.587,1.82042 1.14356,3.45156 1.62849,4.43319 0.28855,0.58417 0.57121,1.0452 0.87972,1.38934 0.3085,0.34415 0.66441,0.58649 1.06178,0.58649 0.3124,0 0.61179,-0.10643 1.01665,-0.2726 l 0.003,-0.002 c 0.35288,-0.14245 0.87547,-0.29642 1.54268,-0.44571 0.67873,-0.15041 1.24022,-0.24549 1.68483,-0.27061 h 0.004 0.003 c 0.59688,-0.0439 1.05596,-0.0805 1.3819,-0.11093 0.16296,-0.0152 0.29154,-0.0287 0.39172,-0.0413 0.0921,-0.0115 0.13704,-0.0128 0.24139,-0.0452 0.28326,-0.0785 0.5392,-0.19561 0.76146,-0.44718 0.0509,-0.0576 0.0965,-0.12743 0.13878,-0.20197 -0.40157,1.54962 -0.58835,2.96272 -0.53873,4.25161 0.0207,0.53702 0.15181,1.06711 0.44583,1.4386 0.29402,0.3715 0.69622,0.51684 1.09835,0.51684 0.27151,0 0.55119,-0.0736 0.90099,-0.19151 l 0.004,-0.002 h 0.004 c 0.2802,-0.10049 0.75884,-0.22684 1.40017,-0.3686 0.64185,-0.13709 1.14081,-0.2199 1.49604,-0.25569 h 0.006 l 0.006,-0.002 c 0.49272,-0.0616 0.84389,-0.12203 1.17893,-0.37408 0.34799,-0.26059 0.54461,-0.85427 0.52604,-1.34806 v -0.002 c -0.005,-0.1382 -0.0172,-0.28095 -0.031,-0.49048 l -10e-4,-0.0229 -0.001,-0.0224 c -0.0245,-0.22654 -0.0344,-0.37356 -0.0365,-0.42281 v -0.002 c -1e-5,-2.1e-4 1e-5,-0.002 0,-0.002 -0.0282,-0.74075 0.16908,-1.55003 0.35518,-2.35587 0.53854,0.35367 1.13314,0.59244 1.81913,0.59244 1.18528,0 2.52062,-0.42388 4.03262,-1.23513 2.47578,-1.33461 4.42641,-3.06777 5.81668,-5.21764 h 10e-4 c 1.05572,-1.63532 1.62157,-3.28307 1.55835,-4.92365 -0.048,-1.24741 -0.52486,-2.34344 -1.31137,-3.08164 -0.91561,-0.86097 -2.04394,-1.27842 -3.31928,-1.27842 -0.83767,0 -1.6523,0.17661 -2.4239,0.53773 -0.51984,0.2418 -1.29686,0.81228 -2.03068,1.32568 -4.1e-4,-0.0161 0.005,-0.0443 0.004,-0.0602 v -0.002 c -0.0202,-0.52351 -0.23041,-1.02086 -0.53014,-1.34259 -0.3009,-0.32312 -0.68835,-0.48699 -1.07746,-0.48699 h -0.57827 v 0.0846 c -0.0734,0.0148 -0.1338,0.0107 -0.21154,0.0303 -1.22277,0.28891 -2.40335,0.43205 -3.53492,0.43228 l -0.89987,-0.0284 h -0.007 c -0.47013,0 -0.84096,0.0412 -1.17596,0.21092 -0.16749,0.0849 -0.33604,0.20887 -0.47381,0.4268 -0.13775,0.21794 -0.21669,0.53967 -0.20594,0.81929 0.0172,0.44428 0.27895,0.87158 0.54992,1.03815 0.27586,0.17468 0.54634,0.23224 0.97859,0.3308 0.22952,0.0563 0.36704,0.14585 0.40629,0.18604 0.0125,0.0128 0.0108,0.007 0.0127,0.006 -6e-4,9.7e-4 -0.001,5.8e-4 -0.001,0.004 0.004,0.10958 -0.0178,0.29366 -0.10297,0.5432 -0.10575,0.28957 -0.5064,1.31335 -1.2002,3.01747 -1.28319,3.02292 -2.10646,5.0879 -2.48732,6.28713 -0.0739,0.22758 -0.14175,0.45093 -0.20743,0.67303 0.002,-0.0415 0.009,-0.0836 0.008,-0.12436 -0.0167,-0.45425 -0.25922,-0.86101 -0.51187,-1.06253 -0.25139,-0.20052 -0.52778,-0.29577 -0.85584,-0.36462 l -0.004,-0.002 c -0.51131,-0.11349 -0.86878,-0.30077 -1.06738,-0.48301 -0.20122,-0.1895 -0.49292,-0.6134 -0.8122,-1.27843 -5e-4,-9.6e-4 -7.2e-4,-8.8e-4 -10e-4,-0.002 -0.515,-1.1227 -1.07207,-2.58413 -1.63857,-4.16058 1.25053,-0.78996 2.31473,-1.46277 2.64402,-1.6903 l 0.004,-0.004 c 0.39353,-0.26781 0.81459,-0.60442 1.26063,-1.0093 l 0.006,-0.006 c 0.70008,-0.61922 1.23568,-1.17176 1.61992,-1.69976 0.38554,-0.52979 0.67597,-1.05413 0.65027,-1.75197 v -0.002 c -0.017,-0.44248 -0.24407,-0.83532 -0.48388,-1.0491 -0.24247,-0.21563 -0.53744,-0.32135 -0.83197,-0.32135 -0.28312,0 -0.59901,0.0579 -0.9812,0.1557 h -10e-4 c -0.91127,0.23783 -1.85663,0.38083 -2.8384,0.42333 h 0.007 c -0.46623,0.0117 -0.79925,0.0385 -1.1267,0.22733 l -0.008,0.006 -0.0101,0.006 c -0.31718,0.20115 -0.58358,0.75505 -0.56558,1.24309 0.0118,0.32055 0.12693,0.65867 0.29772,0.88147 0.14792,0.19298 0.32545,0.28967 0.50477,0.37058 -0.0613,0.0676 -0.0818,0.10693 -0.1634,0.18605 h -10e-4 l -10e-4,0.002 c -0.28602,0.28082 -0.6926,0.54295 -1.07895,0.80834 -0.0526,-0.15921 -0.0769,-0.20493 -0.14065,-0.41537 l -0.001,-0.006 c -0.41153,-1.38956 -0.74239,-2.33064 -1.10282,-2.94584 -0.36133,-0.61672 -0.90383,-1.00782 -1.47628,-1.00782 z m -12.356392,1.04363 c -1.493442,0 -2.992362,0.39575 -4.496729,1.17496 -2.306892,1.19557 -4.210815,2.83593 -5.680882,4.92763 -1.236848,1.7571 -1.899409,3.52063 -1.831821,5.27583 0.04815,1.25072 0.552502,2.35345 1.380393,3.11348 0.959771,0.88374 2.249111,1.27444 3.835631,1.27444 0.945818,0 1.894295,-0.17963 2.838391,-0.53376 h 0.0015 0.0011 c 0.942046,-0.35846 1.925107,-0.90421 2.951433,-1.64154 0.689279,-0.4941 1.211815,-0.92203 1.591931,-1.32369 0.190057,-0.20084 0.346852,-0.39213 0.473809,-0.61633 0.126962,-0.2242 0.244371,-0.50641 0.229818,-0.88395 -0.0176,-0.45925 -0.256394,-0.82343 -0.49918,-1.02274 -0.226979,-0.19039 -0.495558,-0.30045 -0.768545,-0.30045 -0.52226,0 -0.936942,0.31329 -1.591929,0.79889 h -0.0015 c -0.817372,0.61213 -1.472575,1.03325 -1.941506,1.25753 h -0.0015 l -0.0015,0.002 c -0.471078,0.22971 -0.884351,0.3308 -1.249072,0.3308 -0.275566,0 -0.404829,-0.079 -0.449932,-0.12784 -0.0451,-0.0488 -0.07769,-0.0939 -0.0873,-0.34373 -0.0284,-0.7371 0.231861,-1.68159 0.690572,-2.7374 0.594868,0.66937 1.337594,1.1242 2.283246,1.1242 1.433513,0 2.824776,-0.48438 4.150883,-1.42516 h 0.0015 l 0.0015,-0.002 c 0.879181,-0.63233 1.560352,-1.31765 2.032162,-2.10565 0.47182,-0.78802 0.722746,-1.7047 0.686466,-2.64688 -0.0415,-1.0789 -0.553796,-2.01191 -1.325546,-2.63991 l -10e-4,-0.002 h -0.002 C 47.990534,14.51258 46.91484,14.23708 45.584074,14.23708 Z m 53.510409,0 c -1.4933,7e-5 -2.99214,0.3958 -4.49635,1.17496 -2.3069,1.19557 -4.21119,2.83593 -5.681247,4.92763 -1.23685,1.7571 -1.89941,3.52063 -1.83182,5.27583 0.0482,1.25119 0.55347,2.35492 1.38188,3.11497 0.95962,0.88278 2.248417,1.27295 3.834137,1.27295 0.94582,0 1.8958,-0.17963 2.83988,-0.53376 h 10e-4 c 0.94207,-0.35846 1.92472,-0.90422 2.95105,-1.64154 0.68926,-0.49408 1.21323,-0.92206 1.59342,-1.32369 0.19009,-0.20082 0.345323,-0.39215 0.472333,-0.61633 0.127,-0.22418 0.24588,-0.50774 0.2313,-0.88544 -0.0178,-0.46029 -0.25818,-0.8222 -0.500673,-1.02125 -0.2266,-0.19006 -0.49555,-0.30045 -0.76854,-0.30045 -0.52226,0 -0.93546,0.31329 -1.59044,0.79889 h -0.001 -10e-4 c -0.81731,0.61208 -1.47249,1.03321 -1.94151,1.25753 h -10e-4 l -0.001,0.002 c -0.47119,0.22976 -0.88435,0.3308 -1.24908,0.3308 -0.27557,0 -0.40483,-0.079 -0.44992,-0.12784 -0.0451,-0.0488 -0.0777,-0.0939 -0.0873,-0.34373 -0.0284,-0.73701 0.23234,-1.68172 0.69095,-2.7374 0.59477,0.66961 1.33702,1.1242 2.28287,1.1242 1.43349,0 2.82514,-0.48438 4.151263,-1.42516 h 10e-4 l 0.001,-0.002 c 0.87917,-0.63233 1.56147,-1.31765 2.03328,-2.10565 0.47182,-0.78801 0.72164,-1.70469 0.68535,-2.64688 -0.0415,-1.07855 -0.55219,-2.01184 -1.32406,-2.63991 l -0.003,-0.002 h -0.001 c -0.81433,-0.65126 -1.88983,-0.92668 -3.220423,-0.92674 z M 45.249079,17.3053 c 0.0034,0 -6.11e-4,-6e-5 0.0026,0 -0.01185,0.11733 -0.04231,0.36691 -0.199972,0.80685 -0.182952,0.51042 -0.406833,0.99265 -0.674153,1.44008 l -0.0015,0.002 c -0.252926,0.42696 -0.534503,0.78773 -0.854352,1.09586 l -0.0015,0.002 -0.0015,0.002 c -0.07441,0.0728 -0.05502,0.0397 -0.118266,0.0881 -0.05646,-0.4037 -0.20753,-0.80653 -0.455529,-1.03219 -0.059,-0.0554 -0.137886,-0.0381 -0.201836,-0.0806 0.326868,-0.46391 0.607086,-0.96329 1.016641,-1.36497 h 0.0015 v -0.002 c 0.701135,-0.6921 1.247188,-0.95707 1.487843,-0.95707 z m 53.510418,0 c 0.005,0 -2.9e-4,-1.2e-4 0.004,0 -0.0118,0.11736 -0.0427,0.36695 -0.20034,0.80685 -0.18281,0.51004 -0.40781,0.99238 -0.67528,1.44008 l -0.001,0.002 c -0.25307,0.4272 -0.53504,0.78785 -0.85472,1.09586 l -0.001,0.002 -10e-4,0.002 c -0.0737,0.0721 -0.0544,0.0399 -0.11715,0.0881 -0.0565,-0.40374 -0.209,-0.8065 -0.45702,-1.03219 -0.0586,-0.055 -0.13646,-0.0383 -0.19997,-0.0806 0.32687,-0.4637 0.60722,-0.96341 1.01664,-1.36497 l 0.001,-0.002 c 0.70116,-0.69211 1.2457,-0.95707 1.48635,-0.95707 z m -19.031907,1.32518 3.7e-4,4.9e-4 h 0.001 c 0.0704,0 0.11175,0.01 0.13692,0.0179 1.8e-4,0.006 -7e-4,-9e-5 -3.7e-4,0.009 0.0154,0.40018 -0.13057,1.22769 -0.51299,2.33498 -0.56213,1.60214 -1.39355,3.08 -2.51716,4.44461 -0.33039,0.40052 -0.69537,0.75948 -1.09126,1.07547 -0.23187,0.17803 -0.26038,0.17671 -0.37084,0.23131 -0.10087,-0.34905 -0.22808,-0.70511 -0.43874,-0.87649 l -0.006,-0.006 -0.007,-0.004 c -0.17682,-0.13561 -0.38733,-0.15388 -0.5891,-0.20694 0.21642,-0.58349 0.38995,-1.12004 0.75437,-1.85942 l 0.001,-0.004 0.003,-0.004 c 0.55278,-1.15324 1.04452,-2.02712 1.45389,-2.60409 l 0.001,-0.002 c 3.3e-4,-4.8e-4 7.2e-4,-5.3e-4 10e-4,-0.002 0.41422,-0.57803 0.93263,-1.15034 1.55649,-1.70174 0.70308,-0.59977 1.25995,-0.84415 1.62289,-0.84415 z" />
      <path
         id="path3004-5"
         style="fill:#ffff01;fill-opacity:1;fill-rule:nonzero;stroke:none;stroke-width:0.335039"
         d="m 20.454116,10.12415 c -0.411299,0 -1.255133,0.0527 -2.530971,0.15819 -3.610268,0.3168 -5.592269,0.47505 -5.946515,0.47505 -0.337082,0 -0.743621,-0.0143 -1.224448,-0.0383 -0.332012,-0.0144 -0.583392,-0.0194 -0.749143,-0.0194 -0.759865,0 -1.128351,0.22585 -1.111031,0.67701 0.0091,0.23511 0.234406,0.44609 0.676392,0.64767 0.465215,0.21108 0.704494,0.4893 0.717432,0.82526 0.02216,0.57582 -0.569009,2.28408 -1.76765,5.13456 -1.235343,2.93691 -2.087696,5.13945 -2.550746,6.61743 -0.462999,1.47808 -0.679823,2.67792 -0.643934,3.60892 0.01554,0.40307 0.11957,0.73411 0.312266,0.98842 0.198531,0.25914 0.437982,0.38849 0.729371,0.38849 0.291442,0 0.931208,-0.15323 1.919122,-0.46511 0.253924,-0.0816 0.753017,-0.1728 1.491946,-0.27358 0.733425,-0.096 1.410541,-0.16787 2.020597,-0.20146 0.838106,-0.0479 1.246295,-0.28311 1.230043,-0.70538 -0.01113,-0.28794 -0.277736,-0.52817 -0.799136,-0.71531 -0.406101,-0.15835 -0.615148,-0.3935 -0.627146,-0.70538 -0.01255,-0.32633 0.0865,-0.8781 0.296598,-1.65547 0.209864,-0.78225 0.450759,-1.49266 0.728624,-2.14048 0.613316,-1.43484 0.990129,-2.33678 1.118492,-2.71104 l 0.404419,-0.0289 c 1.846392,-0.12474 2.941016,-0.18703 3.27825,-0.18703 0.668381,0 1.129358,0.1009 1.371441,0.30244 0.265106,0.2064 0.429509,0.32605 0.487987,0.35965 0.06431,0.0384 0.150981,0.0577 0.265261,0.0577 0.268569,0 0.497004,-0.15379 0.685347,-0.45615 0.188138,-0.30705 0.277035,-0.66187 0.261529,-1.06502 -0.01409,-0.36472 -0.166517,-0.61931 -0.46374,-0.76805 -0.296865,-0.144 -0.802608,-0.21588 -1.522536,-0.21588 -0.668534,0 -2.02967,0.11033 -4.078133,0.32631 0.861002,-2.26979 1.388571,-3.70472 1.576635,-4.30931 0.188214,-0.60471 0.315498,-1.30505 0.387628,-2.10168 0.637207,-0.0719 1.287072,-0.10546 1.944119,-0.10546 0.931321,0 1.588856,0.16294 1.967248,0.49396 0.37829,0.32631 0.583831,0.91187 0.616327,1.75645 0.01016,0.26394 0.0024,0.5039 -0.0179,0.7198 -0.08418,0.63339 -0.120444,1.03168 -0.114163,1.19485 0.01941,0.50391 0.337682,0.7581 0.949114,0.7581 0.314184,0 0.533632,-0.0958 0.669305,-0.28305 0.129867,-0.18714 0.257462,-0.58533 0.376811,-1.19485 0.0089,-0.0672 0.17185,-0.58068 0.495076,-1.53559 0.506653,-1.53082 0.759301,-2.38497 0.752875,-2.55286 -0.01778,-0.46068 -0.377331,-0.75353 -1.085289,-0.88793 -0.61561,-0.1104 -1.452168,-0.16764 -2.497767,-0.16764 z m 12.412355,0 c -0.184222,0.0142 -0.452293,0.0705 -0.808463,0.16764 -0.390209,0.10561 -0.923783,0.1875 -1.601257,0.25469 -1.213464,0.0912 -2.143389,0.13399 -2.795111,0.12436 -0.760274,-0.01 -1.129511,0.19212 -1.113643,0.60488 0.01128,0.29272 0.235938,0.48489 0.679377,0.57604 0.50724,0.11515 0.83103,0.2204 0.971873,0.31637 0.135215,0.10079 0.210697,0.27824 0.220863,0.54221 0.02274,0.59026 -0.290535,1.65111 -0.939787,3.19157 -1.388692,3.25833 -2.290138,5.51817 -2.715646,6.78507 -0.847504,2.47139 -1.246408,4.27567 -1.202808,5.40816 0.03754,0.97416 0.341954,1.46396 0.913299,1.46396 0.279979,0 0.682216,-0.0915 1.200942,-0.26911 0.438447,-0.18715 1.277616,-0.3594 2.522764,-0.51784 0.534184,-0.0767 0.884784,-0.16831 1.068872,-0.28354 0.178538,-0.11029 0.262721,-0.30203 0.252202,-0.57554 -0.0057,-0.1487 -0.02957,-0.32158 -0.06566,-0.51833 -0.02333,-0.16317 -0.03495,-0.31198 -0.04029,-0.45117 -0.05863,-1.52118 0.512687,-3.74754 1.713926,-6.67961 1.243214,-3.02799 1.931158,-4.75077 2.063877,-5.16343 0.492007,-1.46847 0.748445,-2.66853 0.769663,-3.59947 0.02391,-0.86383 -0.290714,-1.31935 -0.938669,-1.37691 -0.04301,-0.005 -0.09491,-0.005 -0.15632,0 z m 80.717239,0 c -0.18423,0.0142 -0.45229,0.0705 -0.80846,0.16764 -0.39021,0.10561 -0.92413,0.1875 -1.60163,0.25469 -1.21344,0.0912 -2.14305,0.13399 -2.79474,0.12436 -0.7603,-0.01 -1.12953,0.19212 -1.11364,0.60488 0.0113,0.29272 0.23594,0.48489 0.67938,0.57604 0.50723,0.11515 0.83102,0.2204 0.97187,0.31637 0.13521,0.10079 0.21069,0.27824 0.22086,0.54221 0.0228,0.59026 -0.29053,1.65111 -0.93978,3.19157 -1.38867,3.25833 -2.29014,5.51817 -2.71565,6.78507 -0.8475,2.47139 -1.24642,4.27567 -1.20281,5.40816 0.0375,0.97416 0.34195,1.46396 0.9133,1.46396 0.27997,0 0.68224,-0.0915 1.20094,-0.26911 0.43845,-0.18715 1.27762,-0.3594 2.52276,-0.51784 0.53416,-0.0767 0.88479,-0.16831 1.06888,-0.28354 0.17853,-0.11029 0.26274,-0.30203 0.2522,-0.57554 -0.006,-0.1487 -0.0295,-0.32158 -0.0656,-0.51833 -0.0233,-0.16317 -0.0352,-0.31198 -0.0403,-0.45117 -0.0586,-1.52118 0.51265,-3.74754 1.71393,-6.67961 1.24318,-3.02799 1.93118,-4.75077 2.06387,-5.16343 0.49201,-1.46847 0.74844,-2.66853 0.76967,-3.59947 0.0239,-0.86383 -0.29075,-1.31935 -0.93867,-1.37691 -0.043,-0.005 -0.0949,-0.005 -0.15632,0 z m -55.64257,4.25361 c -0.21761,0 -0.50207,0.0438 -0.84727,0.12585 -0.93062,0.22416 -2.54193,0.37168 -4.85226,0.44272 -0.81483,-0.011 -1.21014,0.22984 -1.19199,0.72178 0.007,0.20233 0.0814,0.35027 0.2149,0.43228 0.14,0.0874 0.48575,0.19119 1.05022,0.32234 0.61431,0.13664 1.14801,0.61754 1.61318,1.43213 0.45888,0.81456 0.93087,2.14311 1.40875,3.98 -2.37523,1.68389 -4.02428,3.17086 -4.93434,4.46104 -0.857339,1.20281 -1.265409,2.28509 -1.230039,3.24728 0.01,0.26242 0.0992,0.49214 0.27421,0.68348 0.16861,0.19139 0.37106,0.28951 0.601026,0.28951 0.13051,0 0.346013,-0.0598 0.646553,-0.1746 0.1409,-0.0547 0.50382,-0.15881 1.08268,-0.3119 0.5727,-0.15308 0.9672,-0.24573 1.17109,-0.27855 0.64892,-0.10934 1.06168,-0.2134 1.22593,-0.3119 0.16408,-0.10384 0.24419,-0.28935 0.23392,-0.56808 -0.01,-0.26795 -0.14686,-0.44873 -0.4115,-0.54171 -0.41629,-0.16396 -0.66936,-0.27868 -0.75885,-0.34423 -0.0897,-0.071 -0.13801,-0.20767 -0.1455,-0.40989 -0.0178,-0.48656 0.29269,-1.17031 0.93233,-2.0395 0.6334,-0.86384 1.27011,-1.46478 1.89226,-1.79277 0.7203,2.33979 1.34923,4.05615 1.88666,5.14402 0.53738,1.08795 1.0238,1.62911 1.45911,1.62911 0.1864,0 0.46332,-0.0818 0.84913,-0.24026 0.39226,-0.15858 0.93358,-0.317 1.61805,-0.47008 0.69079,-0.15308 1.27148,-0.25173 1.75534,-0.27906 1.19064,-0.0875 1.82868,-0.14725 1.92695,-0.18008 0.45548,-0.12577 0.67661,-0.3774 0.66296,-0.74914 -0.0129,-0.34996 -0.30772,-0.58504 -0.8842,-0.70537 -0.57037,-0.12565 -1.00699,-0.33357 -1.3095,-0.61235 -0.30269,-0.28435 -0.62569,-0.78157 -0.96926,-1.49779 -0.61495,-1.3393 -1.26625,-2.98491 -1.94076,-4.92563 1.74407,-1.09883 2.80747,-1.77661 3.17118,-2.02806 0.37003,-0.25148 0.77451,-0.57442 1.20765,-0.96802 1.3671,-1.20816 2.04212,-2.13206 2.01836,-2.7772 -0.006,-0.16946 -0.0802,-0.31694 -0.22795,-0.4482 -0.14136,-0.12571 -0.31188,-0.19151 -0.51075,-0.19151 -0.21765,0 -0.50824,0.0493 -0.87151,0.14227 -0.94242,0.24596 -1.91912,0.39345 -2.93091,0.43725 -0.43485,0.011 -0.73758,0.0658 -0.90808,0.16415 -0.16399,0.104 -0.24482,0.27325 -0.23615,0.50838 0.0107,0.28973 0.16722,0.49207 0.46373,0.60688 0.41025,0.16404 0.61463,0.31152 0.61969,0.45367 0.009,0.24596 -0.22044,0.59035 -0.68274,1.03865 -0.46207,0.45368 -1.02501,0.87487 -1.68819,1.26847 -0.0952,-0.22415 -0.23442,-0.62881 -0.4115,-1.21376 -0.40459,-1.36672 -0.74321,-2.28516 -1.02187,-2.76078 -0.27866,-0.47562 -0.61656,-0.71084 -1.02074,-0.71084 z m 17.84253,1.01527 c -0.18857,0 -0.41565,0.0338 -0.68162,0.10098 -1.25699,0.29755 -2.47399,0.4462 -3.64536,0.4462 l -0.90397,-0.0289 c -0.86836,0 -1.2944,0.21585 -1.2778,0.64766 0.007,0.16796 0.0799,0.29742 0.21452,0.37905 0.13478,0.0863 0.41219,0.17264 0.83309,0.26861 0.5824,0.13921 0.87988,0.44654 0.898,0.91679 0.0103,0.26875 -0.0407,0.57129 -0.15371,0.90235 -0.11881,0.32632 -0.51942,1.34825 -1.21885,3.06621 -1.28348,3.02315 -2.10643,5.09651 -2.46307,6.21948 -0.66927,2.05864 -0.97223,3.83891 -0.91404,5.35046 0.0314,0.81583 0.35567,1.22371 0.96702,1.22371 0.17701,0 0.4321,-0.0579 0.75922,-0.16814 0.32127,-0.11523 0.80791,-0.2401 1.45948,-0.38402 0.6517,-0.1392 1.16256,-0.22524 1.54381,-0.26365 0.4606,-0.0576 0.77723,-0.14897 0.94948,-0.27856 0.16657,-0.12473 0.24391,-0.34067 0.23243,-0.63822 -0.004,-0.096 -0.0154,-0.2492 -0.0294,-0.46511 -0.0265,-0.24478 -0.0382,-0.4081 -0.0418,-0.49445 -0.0444,-1.15173 0.13234,-2.35149 0.53612,-3.58952 0.54017,0.67662 1.27861,1.01228 2.21572,1.01228 1.07991,0 2.35032,-0.3935 3.81698,-1.18042 2.41246,-1.30048 4.27969,-2.9701 5.59544,-5.00474 0.99754,-1.54517 1.47264,-3.00421 1.41956,-4.38143 -0.0397,-1.03179 -0.39754,-1.862 -1.06737,-2.49068 -0.80627,-0.75815 -1.80343,-1.13715 -2.98613,-1.13715 -0.77703,0 -1.52521,0.16293 -2.23251,0.49396 -0.70159,0.32634 -1.67122,0.95983 -2.89248,1.89077 0.0728,-0.63341 0.1075,-1.07002 0.0981,-1.31474 -0.0118,-0.30714 -0.11936,-0.57089 -0.316,-0.78197 -0.19668,-0.21119 -0.43484,-0.31687 -0.71482,-0.31687 z m -30.198915,0.0289 c -1.417117,0 -2.842444,0.37408 -4.287805,1.12272 -2.240727,1.16129 -4.065569,2.74031 -5.4686,4.73662 -1.17549,1.66994 -1.732043,3.23889 -1.6755,4.70726 0.03935,1.02219 0.414559,1.86205 1.131177,2.51953 0.823385,0.75815 1.99205,1.13714 3.506202,1.13714 0.891335,0 1.787525,-0.16795 2.683188,-0.5039 0.895283,-0.34068 1.840879,-0.86334 2.83615,-1.57837 1.345573,-0.96453 2.009636,-1.6652 1.992618,-2.10666 -0.0057,-0.14885 -0.07927,-0.2879 -0.226833,-0.4079 -0.141734,-0.11996 -0.298732,-0.18256 -0.464483,-0.18256 -0.245621,0 -0.68215,0.235 -1.309882,0.7004 -0.833063,0.62388 -1.507424,1.06071 -2.029178,1.31025 -0.521528,0.2543 -1.002641,0.37905 -1.448297,0.37905 -0.714223,0 -1.083942,-0.40285 -1.114761,-1.20431 -0.04475,-1.16128 0.321334,-2.48591 1.103942,-3.97354 0.43972,1.03173 1.259743,1.55003 2.448149,1.55003 1.336989,0 2.628214,-0.44634 3.879655,-1.33415 1.668004,-1.19966 2.473154,-2.5433 2.415694,-4.0357 -0.0308,-0.80139 -0.38261,-1.47775 -1.049101,-2.0201 -0.678011,-0.54222 -1.653934,-0.81581 -2.922335,-0.81581 z m 53.510782,0 c -1.41711,0 -2.84247,0.37408 -4.2878,1.12272 -2.24074,1.16129 -4.06557,2.74031 -5.468597,4.73662 -1.17549,1.66994 -1.73203,3.23889 -1.6755,4.70726 0.0394,1.02219 0.41456,1.86205 1.13117,2.51953 0.823387,0.75815 1.992057,1.13714 3.506207,1.13714 0.89134,0 1.78754,-0.16795 2.68319,-0.5039 0.8953,-0.34068 1.84085,-0.86334 2.83615,-1.57837 1.34557,-0.96453 2.01002,-1.6652 1.99299,-2.10666 -0.006,-0.14885 -0.0796,-0.2879 -0.22721,-0.4079 -0.14173,-0.11996 -0.29835,-0.18256 -0.46411,-0.18256 -0.24561,0 -0.68215,0.235 -1.30988,0.7004 -0.83306,0.62388 -1.5078,1.06071 -2.02955,1.31025 -0.52155,0.2543 -1.00227,0.37905 -1.44792,0.37905 -0.71425,0 -1.08394,-0.40285 -1.11476,-1.20431 -0.0448,-1.16128 0.32135,-2.48591 1.10393,-3.97354 0.43975,1.03173 1.25935,1.55003 2.44778,1.55003 1.33696,0 2.62821,-0.44634 3.879663,-1.33415 1.66798,-1.19966 2.47315,-2.5433 2.41568,-4.0357 -0.0308,-0.80139 -0.3822,-1.47775 -1.04872,-2.0201 -0.67799,-0.54222 -1.65431,-0.81581 -2.922713,-0.81581 z m -53.846555,1.52614 c 0.394258,0 0.596342,0.20126 0.611851,0.60439 0.01184,0.30708 -0.08569,0.74381 -0.286899,1.30528 -0.201229,0.56141 -0.449033,1.09413 -0.744294,1.58833 -0.284308,0.47993 -0.605665,0.89281 -0.96926,1.24309 -0.358017,0.35029 -0.642432,0.52778 -0.842413,0.52778 -0.154291,0 -0.237161,-0.0722 -0.242503,-0.21141 -0.0026,-0.0672 0.02163,-0.17748 0.07313,-0.32632 0.0298,-0.11512 0.04283,-0.22513 0.03843,-0.34025 -0.0091,-0.23517 -0.09671,-0.43195 -0.268245,-0.58548 -0.166032,-0.15834 -0.368872,-0.23528 -0.608866,-0.23528 -0.119983,0 -0.27928,0.0194 -0.466348,0.0577 0.500666,-0.94527 1.125293,-1.78524 1.873977,-2.51953 0.748658,-0.739 1.362897,-1.1083 1.831448,-1.1083 z m 53.511155,0 c 0.39426,0 0.59633,0.20126 0.61185,0.60439 0.0118,0.30708 -0.0857,0.74381 -0.28689,1.30528 -0.20121,0.56141 -0.44941,1.09413 -0.74467,1.58833 -0.28431,0.47993 -0.60532,0.89281 -0.96889,1.24309 -0.35801,0.35029 -0.6428,0.52778 -0.84278,0.52778 -0.1543,0 -0.23708,-0.0722 -0.24213,-0.21141 -0.003,-0.0672 0.0217,-0.17748 0.0731,-0.32632 0.0298,-0.11512 0.0424,-0.22513 0.038,-0.34025 -0.009,-0.23517 -0.0967,-0.43195 -0.26825,-0.58548 -0.16605,-0.15834 -0.36889,-0.23528 -0.60886,-0.23528 -0.11999,0 -0.27931,0.0194 -0.46635,0.0577 0.50067,-0.94527 1.12569,-1.78524 1.87435,-2.51953 0.74868,-0.739 1.36289,-1.1083 1.83144,-1.1083 z M 79.72861,18.27226 c 0.45706,0 0.69503,0.25425 0.71445,0.7581 0.0245,0.63817 -0.16342,1.53583 -0.56447,2.69711 -0.5972,1.70353 -1.47981,3.26809 -2.65334,4.69334 -0.36026,0.43673 -0.75661,0.82532 -1.18341,1.16599 -0.43275,0.33595 -0.74077,0.50391 -0.92934,0.50391 -0.16563,0 -0.25352,-0.0722 -0.25929,-0.21141 -0.001,-0.0384 0.0188,-0.10053 0.0556,-0.18206 0.0254,-0.0768 0.0342,-0.14904 0.032,-0.21142 -0.008,-0.21109 -0.11204,-0.38833 -0.30667,-0.54668 -0.20021,-0.15357 -0.42033,-0.23081 -0.66595,-0.23081 -0.08,0 -0.19961,0.01 -0.35293,0.0338 -0.0453,0.01 -0.11937,0.0194 -0.22161,0.0338 0.23638,-0.83497 0.63791,-1.8333 1.21027,-2.99458 0.56587,-1.18053 1.07383,-2.0876 1.52366,-2.72099 0.45007,-0.6287 1.00347,-1.23801 1.66095,-1.81864 0.7579,-0.64783 1.40295,-0.96951 1.94001,-0.96951 z" />
    </g>
  </g>
</svg>
